<svg xmlns="http://www.w3.org/2000/svg" width="350" height="350" viewBox="0 0 512 512" version="1.1"><path d="M 207.947 28.553 C 201.101 35.457, 195.624 41.565, 195.775 42.127 C 195.926 42.689, 195.643 42.897, 195.146 42.590 C 194.153 41.977, 180.022 57.345, 169.500 70.482 C 167.850 72.542, 165.825 75.051, 165 76.058 C 164.175 77.065, 162.520 79.151, 161.323 80.694 C 160.125 82.237, 158.318 84.400, 157.306 85.500 C 156.294 86.600, 153.772 89.975, 151.701 93 C 149.630 96.025, 145.926 101.341, 143.468 104.814 C 141.011 108.287, 139 111.303, 139 111.516 C 139 111.730, 137.025 114.738, 134.612 118.202 C 125.365 131.473, 110.567 158.991, 100.034 182.500 C 96.192 191.076, 93 199.189, 93 200.378 C 93 201.064, 92.129 203.426, 91.065 205.629 C 90.001 207.831, 87.525 214.778, 85.562 221.067 C 76.364 250.538, 76.749 248.990, 78.171 250.744 C 79.031 251.805, 79.075 252.129, 78.297 251.662 C 77.488 251.176, 76.750 252.260, 76.047 254.970 C 75.471 257.186, 74.564 260.688, 74.031 262.750 C 67.738 287.099, 61.585 354.800, 63.483 378.791 L 64.199 387.829 110.349 388.181 C 135.732 388.375, 156.636 388.465, 156.803 388.381 C 156.969 388.296, 155.487 384.014, 153.508 378.864 C 151.530 373.714, 149.409 368.150, 148.795 366.500 C 148.181 364.850, 147.302 363.072, 146.840 362.550 C 146.378 362.027, 146 360.773, 146 359.763 C 146 358.752, 144.664 353.780, 143.030 348.713 C 138.783 335.538, 134.828 320.994, 134.541 317.500 C 134.406 315.850, 133.365 310, 132.229 304.500 C 125.456 271.718, 125.815 221.434, 133.064 187.500 C 137.054 168.825, 144.460 143.789, 148.968 133.738 C 150.143 131.120, 150.829 128.532, 150.493 127.988 C 150.157 127.445, 150.290 127, 150.789 127 C 151.288 127, 152.500 125.087, 153.482 122.750 C 156.732 115.012, 167.299 93.547, 169.234 90.750 C 170.280 89.237, 170.869 88, 170.542 88 C 170.214 88, 171.534 85.644, 173.473 82.763 C 175.413 79.883, 177 77.131, 177 76.647 C 177 76.164, 178.607 73.579, 180.571 70.903 C 182.593 68.149, 183.827 65.530, 183.416 64.865 C 182.961 64.128, 183.124 63.958, 183.853 64.409 C 184.525 64.824, 185.299 64.363, 185.691 63.313 C 186.839 60.236, 202.063 39.478, 214.252 24.370 C 217.966 19.766, 220.867 16, 220.700 16 C 220.532 16, 214.793 21.649, 207.947 28.553 M 6 483.005 L 6 505 255.460 505 L 504.920 505 505.210 485.250 C 505.369 474.387, 505.356 464.488, 505.180 463.250 L 504.861 461 436.014 461 C 381.872 461, 367.059 461.267, 366.662 462.250 C 366.262 463.241, 366.142 463.242, 366.079 462.256 C 366.016 461.268, 328.861 461.011, 186 461.011 L 6 461.011 6 483.005 M 111 465 C 111 466.403, 111.672 467.005, 113.250 467.015 C 114.920 467.027, 115.145 467.256, 114.122 467.904 C 113.364 468.384, 113.053 469.277, 113.431 469.888 C 113.823 470.522, 113.448 471, 112.559 471 C 111.219 471, 111 473.034, 111 485.500 L 111 500 114.500 500 L 118 500 118 485.486 C 118 475.636, 118.402 470.314, 119.250 468.921 C 120.332 467.146, 120.182 466.609, 118.139 464.935 C 114.945 462.317, 111 462.353, 111 465 M 248 464.875 C 248 466.077, 248.638 467, 249.469 467 C 250.863 467, 250.574 469.727, 249.045 471 C 248.244 471.667, 243.125 483.701, 242.452 486.500 C 242.320 487.050, 241.264 489.879, 240.106 492.787 C 238.948 495.695, 238 498.507, 238 499.037 C 238 499.567, 239.598 500, 241.552 500 C 244.600 500, 245.253 499.574, 246.150 497 C 247.111 494.243, 247.574 494, 251.879 494 C 256.164 494, 256.658 494.255, 257.694 497 C 258.596 499.390, 259.420 500, 261.746 500 C 263.353 500, 264.913 499.753, 265.214 499.452 C 265.516 499.151, 264.428 495.438, 262.798 491.202 C 261.168 486.966, 259.329 481.925, 258.712 480 C 258.095 478.075, 256.811 475.075, 255.858 473.333 C 254.392 470.649, 254.346 470.081, 255.563 469.614 C 259.097 468.258, 256.387 464.427, 251.155 463.381 C 248.407 462.831, 248 463.024, 248 464.875 M 358 463.865 C 358 465.969, 362.319 470, 364.573 470 C 367.297 470, 367.516 469.227, 365.839 465.547 C 364.933 463.558, 363.948 463, 361.339 463 C 359.503 463, 358 463.389, 358 463.865 M 87.291 471.677 C 87.044 472.325, 86.990 473.878, 87.171 475.130 C 87.440 476.990, 88.139 477.414, 91 477.453 L 94.500 477.500 94.783 488.750 L 95.066 500 98.533 500 L 102 500 102 488.391 L 102 476.781 105.500 477.190 C 108.863 477.582, 109 477.472, 109 474.364 L 109 471.129 98.370 470.814 C 90.884 470.593, 87.608 470.848, 87.291 471.677 M 194.309 470.989 C 190.895 471.775, 185.789 475.670, 185.051 478.052 C 184.266 480.587, 184.415 493.861, 185.224 493.362 C 185.651 493.098, 186 493.341, 186 493.902 C 186 494.463, 186.948 495.805, 188.106 496.884 C 189.355 498.048, 189.903 499.348, 189.452 500.078 C 188.945 500.898, 189.105 501.053, 189.930 500.543 C 191.987 499.272, 203.549 499.684, 206.108 501.120 C 209.813 503.199, 211.595 502.998, 211.544 500.507 C 211.520 499.297, 210.928 497.617, 210.229 496.775 C 209.294 495.649, 209.227 494.532, 209.979 492.557 C 210.540 491.079, 211 487.564, 211 484.747 C 211 474.853, 203.692 468.829, 194.309 470.989 M 286 470.955 C 283.652 471.546, 283.482 472.033, 283.202 478.993 L 282.904 486.403 281.009 483.514 C 279.967 481.925, 279.340 480.259, 279.616 479.812 C 279.892 479.366, 279.615 479, 279 479 C 278.385 479, 278.131 478.597, 278.435 478.105 C 278.740 477.612, 278.309 476.949, 277.479 476.630 C 276.649 476.312, 275.528 474.888, 274.987 473.465 C 274.135 471.225, 273.502 470.921, 270.252 471.190 C 268.188 471.360, 266.613 471.837, 266.750 472.250 C 266.887 472.663, 267 479.104, 267 486.563 L 267 500.127 270.250 499.813 C 273.492 499.501, 273.501 499.484, 274 493 L 274.500 486.500 276.590 489.500 C 277.739 491.150, 279.671 494.300, 280.883 496.500 C 282.684 499.768, 283.629 500.500, 286.044 500.500 C 287.670 500.500, 289.049 500.050, 289.108 499.500 C 289.345 497.306, 289.046 470.718, 288.782 470.529 C 288.627 470.417, 287.375 470.609, 286 470.955 M 414.750 470.783 C 412.130 471.116, 412 471.390, 412 476.566 L 412 482 407.424 482 L 402.849 482 403.017 477.750 C 403.282 471.058, 403.252 471, 399.500 471 L 396 471 396 484.418 C 396 491.798, 396.242 498.468, 396.538 499.239 C 397.181 500.913, 402.937 500.386, 403.116 498.637 C 403.180 498.011, 403.293 495.475, 403.366 493 L 403.500 488.500 407.825 488.189 L 412.151 487.878 411.881 493.689 L 411.612 499.500 415.056 499.500 L 418.500 499.500 418.779 485.579 C 418.933 477.923, 418.708 471.383, 418.279 471.046 C 417.851 470.709, 416.262 470.591, 414.750 470.783 M 121.969 471.500 C 121.952 471.775, 121.921 478.188, 121.900 485.750 L 121.862 499.500 124.931 499.813 L 128 500.127 128.118 493.313 C 128.184 489.566, 128.165 485.825, 128.076 485 C 127.988 484.175, 129.803 486.875, 132.109 491 C 134.416 495.125, 136.798 498.842, 137.402 499.261 C 138.769 500.207, 144.591 499.773, 144.250 498.750 C 144.113 498.337, 144 491.925, 144 484.500 L 144 471 141.040 471 L 138.081 471 137.790 479.219 L 137.500 487.438 134 481.130 C 132.075 477.660, 130.056 473.962, 129.513 472.911 C 128.847 471.622, 127.464 471, 125.263 471 C 123.468 471, 121.986 471.225, 121.969 471.500 M 148.543 471.930 C 147.841 473.067, 147.952 497.710, 148.668 499.577 C 148.948 500.308, 150.266 500.489, 152.294 500.074 C 155.404 499.438, 155.479 499.294, 155.489 493.961 L 155.500 488.500 159.750 488.193 L 164 487.885 164 494.006 L 164 500.127 167.250 499.813 L 170.500 499.500 170.777 485.250 L 171.055 471 167.527 471 L 164 471 164 476.557 L 164 482.115 159.750 481.807 L 155.500 481.500 155.500 476.500 C 155.500 471.621, 155.424 471.493, 152.344 471.194 C 150.608 471.025, 148.898 471.356, 148.543 471.930 M 214.168 483.591 C 214.480 495.417, 214.643 496.297, 216.861 498.091 C 218.575 499.477, 220.804 500, 225 500 C 234.861 500, 236.884 496.679, 236.643 480.880 L 236.500 471.500 233 471.500 L 229.500 471.500 229 482.500 C 228.520 493.053, 228.406 493.513, 226.195 493.827 C 221.781 494.453, 221 492.582, 221 481.378 L 221 471 217.418 471 L 213.837 471 214.168 483.591 M 297.269 473.941 C 292.511 479.976, 291.586 488.168, 295.026 493.810 C 296.136 495.631, 296.842 497.447, 296.595 497.846 C 296.029 498.762, 297.635 499, 307.250 499.423 C 311.512 499.611, 315 499.398, 315 498.949 C 315 498.501, 315.900 497.849, 317 497.500 C 318.727 496.952, 319 495.987, 319 490.433 L 319 484 313.500 484 C 310.475 484, 307.663 483.887, 307.250 483.750 C 306.837 483.613, 306.359 484.962, 306.187 486.750 C 305.895 489.778, 306.083 490, 308.937 490 C 312.355 490, 312.661 490.482, 310.571 492.571 C 308.402 494.741, 304.615 494.284, 302.040 491.542 C 300.089 489.465, 299.813 488.350, 300.264 484.353 C 300.843 479.217, 302.808 477, 306.781 477 C 308.100 477, 309.953 477.955, 310.897 479.122 C 312.279 480.828, 313.240 481.106, 315.808 480.542 C 319.857 479.653, 319.833 478.200, 315.702 474.196 C 312.668 471.255, 311.890 471.004, 305.952 471.055 C 300.093 471.106, 299.295 471.371, 297.269 473.941 M 333 484.300 C 333 492.813, 332.595 498.005, 331.876 498.724 C 331.044 499.556, 333.787 499.841, 342.440 499.821 C 348.868 499.806, 353.873 499.539, 353.561 499.228 C 353.250 498.917, 353.715 497.867, 354.595 496.895 C 356.847 494.406, 356.807 488.549, 354.521 486.023 C 353.084 484.436, 352.922 483.678, 353.824 482.776 C 356.012 480.588, 355.220 475.318, 352.365 473.073 C 350.176 471.351, 348.314 471, 341.365 471 L 333 471 333 484.300 M 359 485.500 L 359 500 362.500 500 L 366 500 366 485.500 L 366 471 362.500 471 L 359 471 359 485.500 M 369.969 471.437 C 369.952 471.746, 369.921 478.188, 369.900 485.750 L 369.862 499.500 372.931 499.813 L 376 500.127 376.118 493.313 C 376.184 489.566, 376.184 486.163, 376.118 485.750 C 375.891 484.309, 377.070 485.015, 377.791 486.750 C 378.190 487.712, 380.019 491.087, 381.854 494.250 C 384.884 499.471, 385.504 500, 388.595 500 L 392 500 392 485.500 L 392 471 389.040 471 L 386.081 471 385.790 478.980 L 385.500 486.960 380.884 479.230 C 376.863 472.496, 375.864 471.460, 373.134 471.187 C 371.410 471.014, 369.986 471.127, 369.969 471.437 M 193.560 478.332 C 192.368 479.204, 191.572 481.398, 191.256 484.688 C 190.839 489.026, 191.096 490.013, 193.137 491.924 L 195.500 494.138 195.828 492.008 C 196.231 489.381, 198.537 488.371, 200.469 489.974 C 201.263 490.633, 202.434 490.850, 203.071 490.456 C 204.554 489.539, 203.775 480.639, 202.028 478.533 C 200.461 476.646, 196.011 476.540, 193.560 478.332 M 340 479.500 C 340 481.917, 340.292 482.097, 343.750 481.810 C 346.730 481.564, 347.500 481.089, 347.500 479.500 C 347.500 477.911, 346.730 477.436, 343.750 477.190 C 340.292 476.903, 340 477.083, 340 479.500 M 250.765 482.616 C 250.469 483.652, 249.940 485.191, 249.589 486.035 C 249.147 487.098, 249.568 487.617, 250.956 487.722 C 253.752 487.932, 254.327 486.502, 252.696 483.389 C 251.459 481.028, 251.244 480.941, 250.765 482.616 M 340 490.799 C 340 492.947, 340.508 493.622, 342.250 493.787 C 346.719 494.210, 349.150 493.072, 348.815 490.715 C 348.553 488.872, 347.787 488.460, 344.250 488.261 C 340.213 488.035, 340 488.162, 340 490.799" stroke="none" fill="#0585be" fill-rule="evenodd"/><path d="M 185.968 145.750 C 174.087 178.184, 166.894 206.886, 163.451 235.598 C 161.469 252.119, 161.206 282.709, 162.909 298.500 C 165.636 323.774, 174.346 353.733, 185.419 375.920 L 191.697 388.500 224.892 389.373 C 243.150 389.853, 258.366 389.967, 258.706 389.627 C 259.047 389.287, 256.664 386.183, 253.413 382.730 C 227.798 355.532, 209.597 326.204, 198.084 293.579 C 186.919 261.942, 181.724 223.775, 183.884 189.265 C 184.840 173.995, 189.199 139.250, 190.626 135.533 C 190.949 134.690, 191.002 134, 190.743 134 C 190.484 134, 188.335 139.287, 185.968 145.750" stroke="none" fill="#00a85a" fill-rule="evenodd"/><path d="M 222.777 208.343 C 226.111 282.511, 248.798 339.764, 292.889 385.272 L 298.482 391.045 355.440 390.975 C 386.766 390.937, 417.596 390.626, 423.949 390.284 L 435.500 389.663 420 386.424 C 358.684 373.611, 317.306 354.311, 285.126 323.514 C 264.782 304.046, 247.086 276.791, 236.647 248.849 C 232.226 237.014, 225.515 214.178, 224.577 207.773 C 223.564 200.860, 222.456 201.210, 222.777 208.343" stroke="none" fill="#fff112" fill-rule="evenodd"/><path d="M 218.975 16.712 C 214.864 20.954, 212.512 23.584, 213.750 22.557 C 217.138 19.746, 216.460 21.658, 212.223 26.861 C 206.741 33.596, 205.702 35, 206.203 35 C 206.449 35, 209.079 31.962, 212.047 28.250 C 215.014 24.538, 219.873 18.688, 222.843 15.250 C 225.814 11.813, 227.841 9, 227.347 9 C 226.854 9, 223.086 12.471, 218.975 16.712 M 198.749 36.750 C 182.880 52.854, 156 84.098, 156 86.441 C 156 87.035, 159.175 83.519, 162.268 79.500 C 162.691 78.950, 163.816 77.539, 164.769 76.364 C 165.721 75.189, 167.850 72.542, 169.500 70.482 C 180.909 56.238, 194.167 41.989, 195.371 42.676 C 195.992 43.031, 196.148 42.934, 195.719 42.463 C 195.289 41.991, 198.654 37.868, 203.197 33.302 C 207.739 28.736, 211.202 25, 210.892 25 C 210.582 25, 205.118 30.287, 198.749 36.750 M 201.354 40.750 C 197.740 45.295, 196.353 47.518, 197.617 46.737 C 198.691 46.073, 205.319 37, 204.730 37 C 204.512 37, 202.993 38.688, 201.354 40.750 M 189.525 57.098 C 187.511 59.902, 186.050 62.384, 186.280 62.613 C 186.509 62.842, 188.345 60.548, 190.359 57.515 C 194.960 50.585, 194.404 50.306, 189.525 57.098 M 180.336 71.250 C 177.497 75.266, 175.617 79, 176.433 79 C 176.636 79, 177.688 77.499, 178.771 75.664 C 179.854 73.829, 181.525 71.129, 182.485 69.664 C 185.301 65.365, 183.614 66.610, 180.336 71.250 M 172.619 84 C 171.163 86.200, 170.316 87.997, 170.736 87.992 C 171.156 87.988, 172.526 86.188, 173.780 83.992 C 176.721 78.842, 176.029 78.846, 172.619 84 M 149.515 94.750 C 146.849 98.463, 145.429 100.872, 146.360 100.105 C 148.421 98.408, 155.626 88, 154.740 88 C 154.533 88, 152.181 91.037, 149.515 94.750 M 162.452 103.093 C 161.572 104.794, 161.030 106.363, 161.247 106.580 C 161.464 106.797, 162.390 105.406, 163.305 103.487 C 165.361 99.175, 164.649 98.845, 162.452 103.093 M 137.798 111.750 C 130.775 122.389, 129.143 125.081, 130.676 123.500 C 132.186 121.943, 139 112.063, 139 111.431 C 139 111.121, 140.059 109.434, 141.352 107.683 C 144.193 103.840, 145.269 102, 144.676 102 C 144.433 102, 141.338 106.388, 137.798 111.750 M 156.390 115.608 C 155.561 117.593, 155.064 119.397, 155.286 119.619 C 155.507 119.840, 156.397 118.217, 157.264 116.011 C 159.223 111.023, 158.454 110.669, 156.390 115.608 M 125.698 130.750 C 121.413 137.899, 119.801 141, 120.369 141 C 120.611 141, 122.267 138.412, 124.050 135.250 C 125.832 132.088, 127.952 128.488, 128.760 127.250 C 129.569 126.013, 129.986 125, 129.687 125 C 129.389 125, 127.594 127.588, 125.698 130.750 M 146.625 138.979 C 145.731 141.213, 145.021 143.594, 145.047 144.270 C 145.073 144.947, 145.962 143.277, 147.023 140.559 C 148.084 137.842, 148.794 135.460, 148.601 135.268 C 148.408 135.075, 147.519 136.745, 146.625 138.979 M 117 146 C 115.878 148.200, 115.184 150, 115.459 150 C 115.734 150, 116.878 148.200, 118 146 C 119.122 143.800, 119.816 142, 119.541 142 C 119.266 142, 118.122 143.800, 117 146 M 141 156 C 140.378 158.311, 140.064 160.398, 140.304 160.637 C 140.543 160.876, 141.224 159.158, 141.818 156.818 C 142.412 154.479, 142.725 152.392, 142.515 152.181 C 142.304 151.971, 141.622 153.689, 141 156 M 109.448 160.102 C 107.481 164.009, 106.035 167.368, 106.234 167.567 C 106.433 167.767, 108.258 164.570, 110.290 160.465 C 112.321 156.359, 113.768 153, 113.504 153 C 113.241 153, 111.416 156.196, 109.448 160.102 M 135.556 175.556 C 135.179 177.562, 135.071 179.404, 135.315 179.649 C 135.560 179.893, 136.068 178.451, 136.444 176.444 C 136.821 174.438, 136.929 172.596, 136.685 172.351 C 136.440 172.107, 135.932 173.549, 135.556 175.556 M 100.275 180.022 C 99.118 182.760, 98.384 185, 98.642 185 C 99.318 185, 103.245 175.911, 102.773 175.439 C 102.556 175.222, 101.432 177.285, 100.275 180.022 M 96.789 187.526 C 96.480 188.612, 95.922 190.400, 95.550 191.500 C 95.177 192.600, 95.605 192.236, 96.500 190.690 C 97.395 189.145, 97.952 187.356, 97.739 186.716 C 97.525 186.075, 97.098 186.440, 96.789 187.526 M 130.500 201 C 130.109 204.367, 130.002 207.335, 130.262 207.595 C 130.521 207.855, 131.047 205.305, 131.429 201.929 C 131.811 198.552, 131.918 195.584, 131.667 195.334 C 131.416 195.083, 130.891 197.633, 130.500 201 M 183.365 205.500 C 183.368 211, 183.536 213.122, 183.738 210.216 C 183.941 207.311, 183.939 202.811, 183.734 200.216 C 183.528 197.622, 183.363 200, 183.365 205.500 M 90.709 203.428 C 88.492 209.822, 88.602 210.459, 91.068 205.514 C 92.161 203.322, 92.912 200.847, 92.737 200.014 C 92.561 199.181, 91.649 200.718, 90.709 203.428 M 86.116 216.098 C 85.502 217.858, 85.032 219.794, 85.070 220.399 C 85.109 221.005, 85.786 219.739, 86.574 217.587 C 87.363 215.435, 87.833 213.500, 87.620 213.286 C 87.406 213.073, 86.729 214.338, 86.116 216.098 M 128.232 223 C 128.232 224.925, 128.438 225.713, 128.689 224.750 C 128.941 223.787, 128.941 222.213, 128.689 221.250 C 128.438 220.287, 128.232 221.075, 128.232 223 M 80.500 234 C 80.120 235.729, 80.035 237.368, 80.310 237.643 C 80.585 237.918, 81.120 236.729, 81.500 235 C 81.880 233.271, 81.965 231.632, 81.690 231.357 C 81.415 231.082, 80.880 232.271, 80.500 234 M 127.407 248 C 127.407 257.075, 127.559 260.788, 127.744 256.250 C 127.929 251.713, 127.929 244.287, 127.744 239.750 C 127.559 235.213, 127.407 238.925, 127.407 248 M 75.547 252.602 C 75.175 254.583, 75.066 256.399, 75.304 256.637 C 75.541 256.875, 76.015 255.674, 76.356 253.968 C 76.785 251.826, 77.367 251.102, 78.238 251.626 C 79.118 252.154, 79.084 251.871, 78.128 250.692 C 76.313 248.456, 76.327 248.446, 75.547 252.602 M 128.232 273 C 128.232 274.925, 128.438 275.712, 128.689 274.750 C 128.941 273.788, 128.941 272.212, 128.689 271.250 C 128.438 270.288, 128.232 271.075, 128.232 273 M 70.672 274.891 C 70.302 276.738, 70.049 279.206, 70.110 280.375 C 70.170 281.544, 70.618 280.475, 71.105 278 C 71.592 275.525, 71.845 273.057, 71.667 272.516 C 71.489 271.974, 71.041 273.043, 70.672 274.891 M 129.232 283 C 129.232 284.925, 129.438 285.712, 129.689 284.750 C 129.941 283.788, 129.941 282.212, 129.689 281.250 C 129.438 280.288, 129.232 281.075, 129.232 283 M 130.058 291.083 C 130.089 292.962, 130.511 296.300, 130.996 298.500 C 131.672 301.574, 131.746 300.880, 131.315 295.500 C 130.718 288.050, 129.962 285.394, 130.058 291.083 M 65.484 310.345 C 65.096 315.013, 64.982 319.432, 65.232 320.166 C 65.481 320.900, 66.018 317.299, 66.425 312.165 C 66.831 307.031, 66.945 302.611, 66.677 302.344 C 66.410 302.077, 65.873 305.677, 65.484 310.345 M 134.783 317.566 C 134.413 318.152, 134.740 320.402, 135.511 322.566 C 136.945 326.592, 137.280 324.876, 136.110 319.500 C 135.751 317.850, 135.154 316.980, 134.783 317.566 M 64.286 327.500 C 64.294 330.250, 64.488 331.256, 64.718 329.736 C 64.947 328.216, 64.941 325.966, 64.704 324.736 C 64.467 323.506, 64.279 324.750, 64.286 327.500 M 63.343 345.500 C 63.346 349.900, 63.522 351.576, 63.733 349.224 C 63.945 346.872, 63.942 343.272, 63.727 341.224 C 63.512 339.176, 63.339 341.100, 63.343 345.500 M 140.139 339.500 C 140.146 340.600, 140.789 343.075, 141.567 345 L 142.982 348.500 142.362 345 C 142.020 343.075, 141.377 340.600, 140.934 339.500 L 140.127 337.500 140.139 339.500 M 145.638 357.500 C 145.970 359.700, 146.670 361.950, 147.192 362.500 C 148.209 363.571, 147.357 359.067, 145.868 355.500 C 145.337 354.229, 145.253 354.959, 145.638 357.500 M 150.634 371 C 150.971 372.375, 151.862 374.850, 152.613 376.500 C 153.710 378.909, 153.859 379.008, 153.366 377 C 153.029 375.625, 152.138 373.150, 151.387 371.500 C 150.290 369.091, 150.141 368.992, 150.634 371 M 63.180 383.595 L 63 388.690 110.250 389.261 C 136.238 389.575, 157.657 389.675, 157.850 389.483 C 158.042 389.291, 157.660 387.499, 157 385.500 C 156.340 383.501, 155.608 382.059, 155.372 382.294 C 155.137 382.530, 155.419 383.972, 156 385.500 C 156.581 387.028, 156.931 388.335, 156.778 388.405 C 156.625 388.476, 135.711 388.375, 110.301 388.181 L 64.103 387.828 63.732 383.164 L 63.360 378.500 63.180 383.595 M 115.116 406.098 C 113.717 410.110, 113.706 410, 115.500 410 C 116.325 410, 117 409.239, 117 408.309 C 117 406.837, 117.184 406.870, 118.418 408.557 C 120.314 411.150, 121.613 409.644, 120.416 406.240 C 119.028 402.294, 116.466 402.226, 115.116 406.098 M 331 403.953 C 331 405.621, 333.289 410, 334.161 410 C 335.142 410, 335.213 408.397, 334.370 405.250 C 333.788 403.081, 331 402.007, 331 403.953 M 482.730 404.750 C 482.453 405.712, 481.903 407.288, 481.506 408.250 C 480.996 409.490, 481.255 410, 482.393 410 C 483.277 410, 484 409.239, 484 408.309 C 484 406.837, 484.184 406.870, 485.418 408.557 C 487.302 411.133, 488.354 409.887, 487.516 406.072 C 486.764 402.649, 483.586 401.772, 482.730 404.750 M 279.083 408.400 C 278.124 409.556, 278.546 409.800, 281.500 409.800 C 284.454 409.800, 284.876 409.556, 283.917 408.400 C 283.278 407.630, 282.190 407, 281.500 407 C 280.810 407, 279.722 407.630, 279.083 408.400 M 77.724 413.250 C 71.723 417.772, 70.543 437.805, 75.853 445 C 78.346 448.378, 82.554 448.767, 85.604 445.902 C 87.709 443.925, 88 442.762, 88 436.326 L 88 429 84.500 429 C 81.278 429, 81 429.238, 81 432 C 81 434.054, 81.493 435, 82.563 435 C 83.725 435, 84.046 435.836, 83.813 438.250 C 83.553 440.955, 83.086 441.500, 81.030 441.500 C 77.715 441.500, 76.033 437.945, 76.015 430.899 C 75.998 424.548, 77.472 419.417, 79.541 418.623 C 81.205 417.984, 84 420.512, 84 422.655 C 84 423.486, 84.563 423.970, 85.250 423.730 C 87.421 422.970, 86.529 415.847, 84.008 413.805 C 81.379 411.676, 79.976 411.552, 77.724 413.250 M 179.556 414.353 C 173.500 420.409, 174.172 445.210, 180.457 447.622 C 182.817 448.528, 186.692 447.228, 187.505 445.259 C 189.422 440.611, 189.750 437.037, 188.364 435.887 C 186.734 434.535, 186.737 434.532, 185.439 438.490 C 184.147 442.432, 181.316 442.961, 180.003 439.508 C 178.690 436.053, 178.711 423.408, 180.035 420.934 C 181.547 418.109, 184.828 418.468, 185.600 421.544 C 186.554 425.343, 188.519 423.857, 188.369 419.452 C 188.278 416.793, 187.551 415.055, 186.008 413.805 C 183.116 411.463, 182.384 411.525, 179.556 414.353 M 294.053 413.947 C 291.062 416.938, 289.739 423.566, 290.200 433.255 C 290.524 440.056, 291.072 442.622, 292.657 444.755 C 295.357 448.387, 299.395 448.878, 301.339 445.810 C 303.690 442.102, 304.306 437.499, 302.637 436.114 C 301.434 435.115, 300.985 435.516, 300.015 438.454 C 298.008 444.537, 294.447 442.538, 293.376 434.727 C 292.102 425.434, 295.176 416.242, 298.606 419.088 C 299.373 419.724, 300 420.838, 300 421.563 C 300 423.362, 301.322 424.037, 302.915 423.053 C 305.659 421.357, 300.464 412, 296.777 412 C 296.350 412, 295.124 412.876, 294.053 413.947 M 8 416 C 8 418.533, 8.389 419, 10.500 419 L 13 419 13 433.500 C 13 447.333, 13.092 448, 15 448 C 16.908 448, 17 447.333, 17 433.500 C 17 419.835, 17.111 419, 18.933 419 C 20.936 419, 22.598 415.776, 21.506 414.009 C 21.163 413.454, 17.984 413, 14.441 413 L 8 413 8 416 M 23.638 414.750 C 23.365 415.712, 23.277 417.625, 23.443 419 C 23.609 420.375, 23.802 427.462, 23.872 434.750 C 23.979 445.804, 24.249 448, 25.500 448 C 26.701 448, 27 446.491, 27 440.417 C 27 430.786, 28.578 430.920, 31.908 440.832 C 33.730 446.258, 34.763 448, 36.158 448 C 38.527 448, 38.487 447.433, 35.544 439.325 C 33.322 433.203, 33.235 432.398, 34.629 430.857 C 37.769 427.388, 37.650 417.793, 34.427 414.570 C 32.159 412.302, 24.296 412.433, 23.638 414.750 M 40 426.935 C 40 444.743, 41.101 447.950, 47.224 447.985 C 51.938 448.011, 53 444.255, 53 427.550 C 53 415.283, 52.765 413, 51.500 413 C 50.268 413, 49.990 414.831, 49.942 423.250 C 49.865 437.020, 49.027 441.500, 46.528 441.500 C 43.828 441.500, 43.216 438.510, 43.100 424.750 C 43.017 415.017, 42.743 413, 41.500 413 C 40.238 413, 40 415.215, 40 426.935 M 56 430.573 C 56 446.770, 56.137 448.121, 57.750 447.813 C 59.227 447.532, 59.578 445.997, 60 437.990 L 60.500 428.500 62.834 436.500 C 64.118 440.900, 65.394 445.313, 65.669 446.307 C 65.953 447.328, 66.895 447.974, 67.835 447.792 C 69.310 447.507, 69.500 445.535, 69.500 430.498 C 69.500 415.129, 69.335 413.494, 67.750 413.190 C 66.179 412.888, 65.992 413.907, 65.921 423.177 C 65.878 428.855, 65.693 433.050, 65.512 432.500 C 65.330 431.950, 63.945 427.337, 62.433 422.250 C 60.257 414.925, 59.301 413, 57.842 413 C 56.122 413, 56 414.168, 56 430.573 M 96 415.930 C 96 418.208, 96.501 418.932, 98.250 419.180 C 100.448 419.493, 100.506 419.830, 100.777 433.750 C 101.004 445.381, 101.320 448, 102.500 448 C 103.680 448, 103.996 445.381, 104.223 433.750 C 104.494 419.830, 104.552 419.493, 106.750 419.180 C 108.499 418.932, 109 418.208, 109 415.930 L 109 413 102.500 413 L 96 413 96 415.930 M 115.636 414.750 C 114.428 418.991, 110.047 443.558, 110.018 446.250 C 109.980 449.891, 112.973 448.019, 113.616 444 C 114.215 440.254, 114.469 440, 117.616 440 C 120.763 440, 121.017 440.254, 121.616 444 C 122.098 447.015, 122.717 448, 124.128 448 C 126.464 448, 126.481 448.422, 123.590 434.830 C 122.264 428.599, 120.872 421.137, 120.496 418.250 C 119.951 414.068, 119.438 413, 117.974 413 C 116.962 413, 115.910 413.788, 115.636 414.750 M 127.442 414.290 C 127.170 415, 127.071 422.757, 127.224 431.527 C 127.471 445.792, 127.685 447.510, 129.250 447.811 C 130.823 448.113, 131.013 447.055, 131.127 437.323 L 131.254 426.500 132.523 437 C 134.012 449.321, 133.662 448, 135.439 448 C 136.373 448, 137.083 446.509, 137.463 443.750 C 139.599 428.239, 139.759 427.877, 139.883 438.250 C 139.978 446.198, 140.277 448, 141.500 448 C 142.776 448, 143 445.389, 143 430.500 L 143 413 140.585 413 C 138.312 413, 138.130 413.434, 137.475 420.420 C 136.116 434.927, 135.513 435.512, 134.046 423.750 C 132.763 413.465, 132.601 413, 130.321 413 C 129.010 413, 127.714 413.581, 127.442 414.290 M 153 430.445 L 153 448 157 448 C 161.926 448, 164.463 445.704, 166.057 439.803 C 167.731 433.610, 166.810 421.073, 164.374 416.889 C 162.632 413.898, 161.848 413.464, 157.700 413.195 L 153 412.890 153 430.445 M 169.226 430.237 C 169.472 445.732, 169.677 447.508, 171.250 447.811 C 172.863 448.120, 173 446.771, 173 430.573 C 173 413.598, 172.931 413, 170.976 413 C 169.013 413, 168.961 413.509, 169.226 430.237 M 192.442 414.290 C 192.170 415, 192.071 422.757, 192.224 431.527 C 192.471 445.792, 192.685 447.510, 194.250 447.811 C 195.792 448.107, 196 447.247, 196 440.573 L 196 433 199 433 L 202 433 202 440.573 C 202 447.247, 202.208 448.107, 203.750 447.811 C 205.323 447.508, 205.528 445.732, 205.774 430.237 C 206.039 413.509, 205.987 413, 204.024 413 C 202.185 413, 202 413.639, 202 420 L 202 427 199 427 L 196 427 196 420 C 196 414.381, 195.698 413, 194.469 413 C 193.626 413, 192.714 413.581, 192.442 414.290 M 214.502 418.161 C 214.869 421.097, 216.172 428.900, 217.397 435.500 C 219.334 445.940, 219.875 447.500, 221.562 447.500 C 222.884 447.500, 223.594 446.705, 223.795 445 C 224.156 441.944, 227.699 420.740, 228.599 416.250 C 229.155 413.476, 228.966 413, 227.309 413 C 225.604 413, 225.141 414.427, 223.499 424.750 C 221.423 437.804, 221.133 437.636, 218.779 422.009 C 217.748 415.161, 217.145 413.450, 215.667 413.169 C 214.010 412.855, 213.898 413.335, 214.502 418.161 M 230.944 413.750 C 230.913 414.163, 230.915 420.994, 230.948 428.931 C 231.018 445.715, 231.900 448.333, 237.312 447.809 C 242.681 447.289, 243.997 443.144, 243.998 426.750 C 244 413.666, 243.903 413, 242 413 C 240.095 413, 240 413.667, 240 427.031 C 240 439.130, 239.773 441.150, 238.355 441.694 C 235.003 442.980, 234 439.322, 234 425.809 C 234 415.090, 233.755 413, 232.500 413 C 231.675 413, 230.975 413.337, 230.944 413.750 M 252 414.449 C 252 415.246, 252.868 420.534, 253.929 426.199 C 254.990 431.865, 256.162 438.895, 256.533 441.821 C 257.198 447.071, 259.355 449.661, 260.935 447.106 C 261.547 446.115, 263.168 437.415, 266.683 416.250 C 267.140 413.495, 266.921 413, 265.240 413 C 263.486 413, 263.111 414.123, 261.984 422.750 C 260.114 437.075, 259.603 437.558, 257.684 426.812 C 256.758 421.627, 256 416.398, 256 415.192 C 256 413.667, 255.392 413, 254 413 C 252.900 413, 252 413.652, 252 414.449 M 268.442 414.290 C 268.170 415, 268.071 422.757, 268.224 431.527 C 268.471 445.792, 268.685 447.510, 270.250 447.811 C 271.863 448.120, 272 446.771, 272 430.573 C 272 415.459, 271.786 413, 270.469 413 C 269.626 413, 268.714 413.581, 268.442 414.290 M 275 430.548 L 275 448.095 281.250 447.798 C 287.206 447.514, 287.515 447.373, 287.811 444.807 C 288.106 442.249, 287.882 442.099, 283.311 441.807 C 278.066 441.472, 278.418 442.114, 278.899 433.750 C 278.977 432.392, 279.896 432, 283 432 C 286.600 432, 287 431.750, 287 429.500 C 287 427.262, 286.593 427, 283.109 427 C 279.401 427, 279.200 426.835, 278.807 423.469 C 278.580 421.528, 278.606 419.728, 278.864 419.469 C 279.122 419.211, 281.058 419, 283.167 419 C 286.759 419, 287 418.812, 287 416 L 287 413 281 413 L 275 413 275 430.548 M 313.442 414.290 C 313.170 415, 313.071 422.762, 313.224 431.540 L 313.500 447.500 319.250 447.800 L 325 448.100 325 445.050 C 325 442.158, 324.792 442, 321 442 L 317 442 317 427.500 C 317 415.146, 316.773 413, 315.469 413 C 314.626 413, 313.714 413.581, 313.442 414.290 M 331.603 414.750 C 331.034 416.624, 327.168 438.026, 326.275 444.250 C 325.843 447.261, 326.056 448, 327.357 448 C 328.473 448, 329.175 446.757, 329.616 444 C 330.211 440.278, 330.483 440, 333.528 440 C 336.485 440, 336.887 440.362, 337.687 443.743 C 338.257 446.153, 339.231 447.613, 340.421 447.843 C 341.977 448.142, 342.174 447.746, 341.660 445.349 C 341.324 443.782, 339.838 435.863, 338.358 427.750 C 336.093 415.332, 335.388 413, 333.901 413 C 332.930 413, 331.895 413.788, 331.603 414.750 M 344 430.500 C 344 445.389, 344.224 448, 345.500 448 C 346.732 448, 347.024 446.079, 347.134 437.250 L 347.268 426.500 348.165 434 C 349.764 447.384, 349.967 448.153, 351.807 447.800 C 353.154 447.542, 353.647 445.841, 354.219 439.488 C 355.338 427.058, 355.716 426.658, 355.864 437.750 C 355.975 446.134, 356.273 448, 357.500 448 C 358.776 448, 359 445.389, 359 430.500 L 359 413 356.638 413 C 354.435 413, 354.230 413.489, 353.591 420.250 C 352.208 434.896, 351.473 435.618, 350.023 423.750 C 348.770 413.499, 348.600 413, 346.355 413 L 344 413 344 430.500 M 368 416 C 368 418.533, 368.389 419, 370.500 419 L 373 419 373 433.500 C 373 445.722, 373.236 448, 374.500 448 C 375.764 448, 376 445.722, 376 433.500 L 376 419 378.500 419 C 380.611 419, 381 418.533, 381 416 L 381 413 374.500 413 L 368 413 368 416 M 383 430.500 C 383 445.155, 383.237 448, 384.456 448 C 385.570 448, 385.981 446.296, 386.206 440.750 L 386.500 433.500 389.750 433.187 L 393 432.873 393 440.437 C 393 446.493, 393.299 448, 394.500 448 C 395.776 448, 396 445.389, 396 430.500 C 396 415.611, 395.776 413, 394.500 413 C 393.308 413, 393 414.451, 393 420.063 L 393 427.127 389.750 426.813 L 386.500 426.500 386.204 419.750 C 385.981 414.646, 385.554 413, 384.454 413 C 383.237 413, 383 415.855, 383 430.500 M 402.491 422.750 C 401.560 428.113, 400.168 435.650, 399.400 439.500 C 397.672 448.151, 397.670 448, 399.531 448 C 401.106 448, 401.402 447.465, 402.436 442.750 C 402.930 440.492, 403.577 440, 406.050 440 C 409.097 440, 409.352 440.306, 410.436 445.250 C 411.094 448.256, 414.002 449.073, 413.996 446.250 C 413.994 445.288, 412.646 437.525, 411 429 C 409.354 420.475, 408.006 413.387, 408.004 413.250 C 408.002 413.113, 407.142 413, 406.092 413 C 404.462 413, 403.939 414.416, 402.491 422.750 M 416 430.500 C 416 445.389, 416.224 448, 417.500 448 C 418.728 448, 419 446.278, 419 438.500 C 419 432.833, 419.404 429, 420 429 C 420.550 429, 421 429.652, 421 430.448 C 421 434.111, 426.178 448, 427.544 448 C 428.763 448, 429 445.157, 429 430.500 C 429 415.611, 428.776 413, 427.500 413 C 426.269 413, 425.987 414.837, 425.930 423.250 C 425.859 433.453, 425.852 433.482, 424.386 429.500 C 423.576 427.300, 422.203 422.688, 421.335 419.250 C 420.101 414.362, 419.348 413, 417.878 413 C 416.112 413, 416 414.044, 416 430.500 M 433 430.500 C 433 445.389, 433.224 448, 434.500 448 C 435.700 448, 436 446.500, 436 440.500 L 436 433 438.956 433 L 441.912 433 442.206 440.239 C 442.448 446.200, 442.809 447.538, 444.250 447.813 C 445.863 448.121, 446 446.767, 446 430.500 C 446 414.233, 445.863 412.879, 444.250 413.187 C 442.826 413.458, 442.445 414.777, 442.204 420.260 C 441.909 426.992, 441.905 427, 438.954 427 L 436 427 436 420 C 436 414.444, 435.690 413, 434.500 413 C 433.224 413, 433 415.611, 433 430.500 M 456 430.500 C 456 445.389, 456.224 448, 457.500 448 C 458.725 448, 459.014 446.215, 459.079 438.250 L 459.158 428.500 461.025 434 C 462.052 437.025, 463.391 441.441, 464.002 443.813 C 464.826 447.017, 465.546 448.042, 466.805 447.800 C 468.307 447.511, 468.531 445.513, 468.774 430.237 C 469.039 413.509, 468.987 413, 467.024 413 C 465.130 413, 464.994 413.656, 464.911 423.250 C 464.823 433.311, 464.798 433.417, 463.545 429 C 459.685 415.392, 458.771 413, 457.429 413 C 456.245 413, 456 415.997, 456 430.500 M 472 430.500 C 472 445.389, 472.224 448, 473.500 448 C 474.776 448, 475 445.389, 475 430.500 C 475 415.611, 474.776 413, 473.500 413 C 472.224 413, 472 415.611, 472 430.500 M 479 430.500 L 479 448 485 448 L 491 448 491 445 C 491 442.111, 490.833 442, 486.500 442 L 482 442 482 437 L 482 432 486 432 C 489.600 432, 490 431.750, 490 429.500 C 490 427.250, 489.600 427, 486 427 L 482 427 482 423 L 482 419 486.500 419 C 490.833 419, 491 418.889, 491 416 L 491 413 485 413 L 479 413 479 430.500 M 494 430.427 C 494 445.381, 494.224 448, 495.500 448 C 496.736 448, 497.011 446.110, 497.065 437.250 L 497.130 426.500 500.180 437.250 C 502.673 446.037, 503.574 448, 505.115 448 C 506.890 448, 507 446.978, 507 430.500 C 507 415.611, 506.776 413, 505.500 413 C 504.260 413, 504 414.852, 504 423.667 C 504 429.533, 503.750 434.083, 503.444 433.777 C 503.138 433.472, 501.616 428.784, 500.061 423.361 C 498.126 416.610, 496.725 413.398, 495.617 413.177 C 494.177 412.889, 494 414.773, 494 430.427 M 27 423.500 C 27 427.964, 27.100 428.121, 29.750 427.816 C 32.239 427.530, 32.500 427.120, 32.500 423.500 C 32.500 419.880, 32.239 419.470, 29.750 419.184 C 27.100 418.879, 27 419.036, 27 423.500 M 157 430.500 C 157 441.265, 157.126 442, 158.965 442 C 161.925 442, 163 438.935, 163 430.500 C 163 422.065, 161.925 419, 158.965 419 C 157.126 419, 157 419.735, 157 430.500 M 116.676 426.074 C 115.369 430.962, 115.866 434, 117.975 434 C 119.665 434, 119.860 433.531, 119.324 430.750 C 118.980 428.962, 118.389 426.633, 118.012 425.574 C 117.385 423.814, 117.269 423.857, 116.676 426.074 M 333.059 425 C 333.015 425.825, 332.699 428.188, 332.358 430.250 C 331.853 433.304, 332.041 434, 333.369 434 C 334.557 434, 334.981 433.117, 334.930 430.750 C 334.856 427.328, 333.208 422.261, 333.059 425 M 405.549 426.382 C 405.247 427.822, 404.766 430.125, 404.481 431.500 C 404.059 433.532, 404.351 434, 406.042 434 C 407.954 434, 408.067 433.615, 407.433 429.250 C 406.597 423.486, 406.262 422.977, 405.549 426.382 M 169.688 450.646 C 169.309 451.024, 169 452.608, 169 454.167 C 169 456.362, 169.464 457, 171.063 457 C 172.780 457, 173.074 456.467, 172.813 453.827 C 172.508 450.731, 171.068 449.266, 169.688 450.646 M 236 453.417 C 236 456, 236.436 457, 237.563 457 C 238.719 457, 239.045 456.172, 238.813 453.827 C 238.361 449.243, 236 448.898, 236 453.417 M 280.667 450.667 C 279.315 452.018, 279.971 457, 281.500 457 C 282.548 457, 283 455.944, 283 453.500 C 283 450.191, 282.161 449.172, 280.667 450.667 M 6.172 460.505 C 6.450 460.783, 87.488 461.011, 186.257 461.011 C 328.559 461.011, 365.941 461.269, 366.340 462.256 C 366.739 463.244, 366.858 463.243, 366.921 462.250 C 366.983 461.263, 381.495 461, 435.930 461 L 504.861 461 505.294 463.250 C 505.666 465.179, 505.747 465.108, 505.864 462.750 L 506 460 255.833 460 C 118.242 460, 5.894 460.227, 6.172 460.505 M 111 463.969 C 111 464.501, 111.597 464.708, 112.328 464.428 C 114.272 463.682, 119 465.727, 119 467.315 C 119 468.735, 114.975 471, 112.453 471 C 111.249 471, 111 473.486, 111 485.500 L 111 500 114.500 500 L 118 500 118 485.486 C 118 475.636, 118.402 470.314, 119.250 468.921 C 120.332 467.146, 120.182 466.609, 118.139 464.935 C 115.680 462.920, 111 462.286, 111 463.969 M 248.002 463.625 C 248.003 464.106, 249.431 464.601, 251.175 464.723 C 255.878 465.055, 257.003 466.731, 254.108 469.096 C 251.490 471.236, 250.003 470.906, 251.910 468.608 C 252.876 467.444, 252.698 467.039, 250.977 466.493 C 249.807 466.121, 248.583 466.083, 248.258 466.409 C 247.933 466.734, 248.375 467, 249.240 467 C 250.320 467, 250.649 467.626, 250.290 469 C 250.002 470.100, 249.369 471, 248.883 471 C 248.398 471, 248 471.360, 248 471.799 C 248 472.239, 249.575 472.415, 251.500 472.190 C 253.885 471.911, 255 472.188, 255 473.057 C 255 473.759, 255.289 474.044, 255.643 473.691 C 255.996 473.337, 255.759 472.415, 255.117 471.641 C 254.206 470.543, 254.285 470.105, 255.474 469.648 C 257.360 468.924, 257.452 466.620, 255.655 465.128 C 253.885 463.660, 247.999 462.504, 248.002 463.625 M 358 463.865 C 358 465.969, 362.319 470, 364.573 470 C 367.297 470, 367.516 469.227, 365.839 465.547 C 364.933 463.558, 363.948 463, 361.339 463 C 359.503 463, 358 463.389, 358 463.865 M 361.165 466.619 C 364.249 469.704, 366.139 469.517, 364.911 466.250 C 364.314 464.665, 363.249 464, 361.305 464 L 358.545 464 361.165 466.619 M 113 467 C 114.375 467.440, 114.938 467.845, 114.250 467.900 C 113.563 467.955, 113 468.505, 113 469.122 C 113 469.902, 113.455 469.867, 114.489 469.009 C 116.400 467.423, 115.503 465.972, 112.691 466.100 C 110.651 466.192, 110.673 466.255, 113 467 M 505 485.498 L 505 504.996 255.250 505.250 L 5.500 505.504 255.750 505.752 L 506 506 506 486 C 506 475, 505.775 466, 505.500 466 C 505.225 466, 505 474.774, 505 485.498 M 87.291 471.677 C 87.044 472.325, 86.990 473.878, 87.171 475.130 C 87.440 476.990, 88.139 477.414, 91 477.453 L 94.500 477.500 94.783 488.750 L 95.066 500 98.533 500 L 102 500 102 488.391 L 102 476.781 105.500 477.190 C 107.425 477.415, 109 477.212, 109 476.739 C 109 476.266, 107.313 476.019, 105.250 476.190 L 101.500 476.500 101.217 487.750 C 100.936 498.925, 100.918 499, 98.500 499 C 96.082 499, 96.064 498.925, 95.783 487.750 L 95.500 476.500 91.750 476.190 C 88.837 475.949, 88 475.454, 88 473.973 C 88 472.235, 88.944 472.042, 98.750 471.781 L 109.500 471.494 98.620 470.997 C 90.798 470.640, 87.614 470.831, 87.291 471.677 M 286 470.892 C 283.658 471.540, 283.481 472.053, 283.202 478.993 L 282.904 486.403 281.009 483.514 C 279.967 481.925, 279.340 480.259, 279.616 479.812 C 279.892 479.366, 279.615 479, 279 479 C 278.385 479, 278.104 478.640, 278.376 478.200 C 278.648 477.760, 277.908 476.799, 276.731 476.064 C 274.651 474.765, 274.634 474.794, 276.130 477.114 C 276.977 478.426, 278.981 481.750, 280.585 484.500 L 283.500 489.500 283.789 480.750 C 284.071 472.199, 284.134 472, 286.539 472 C 287.893 472, 289 471.550, 289 471 C 289 470.450, 288.887 470.045, 288.750 470.100 C 288.613 470.155, 287.375 470.511, 286 470.892 M 414.836 470.775 C 412.339 471.095, 412.151 471.483, 411.836 476.965 C 411.651 480.183, 411.837 482.605, 412.250 482.348 C 412.663 482.092, 413 479.659, 413 476.941 C 413 472.337, 413.171 472, 415.500 472 L 418 472 418 485.500 L 418 499 415.500 499 C 413.111 499, 413 498.733, 413 493 L 413 487 407.500 487 L 402 487 402 493 C 402 498.733, 401.889 499, 399.500 499 L 397 499 397 485.500 L 397 472 399.500 472 C 401.830 472, 402.010 472.357, 402.150 477.250 L 402.300 482.500 402.930 478 C 403.785 471.889, 403.336 471, 399.393 471 L 396 471 396 484.418 C 396 491.798, 396.242 498.468, 396.538 499.239 C 397.181 500.913, 402.937 500.386, 403.116 498.637 C 403.180 498.011, 403.293 495.475, 403.366 493 L 403.500 488.500 407.825 488.189 L 412.151 487.878 411.881 493.689 L 411.612 499.500 415.056 499.500 L 418.500 499.500 418.779 485.579 C 418.933 477.923, 418.708 471.383, 418.279 471.046 C 417.851 470.709, 416.301 470.587, 414.836 470.775 M 121.655 471.750 C 121.400 472.163, 122.948 472.500, 125.095 472.500 C 127.243 472.500, 129 472.163, 129 471.750 C 129 471.337, 127.452 471, 125.559 471 C 123.666 471, 121.909 471.337, 121.655 471.750 M 140.250 471.716 L 143 472.133 143 485.633 L 143 499.133 140.270 498.816 C 138.098 498.565, 136.762 497.170, 133.738 492 C 131.647 488.425, 129.446 485.631, 128.846 485.791 C 128.242 485.952, 128.014 485.407, 128.334 484.573 C 128.652 483.743, 128.482 482.798, 127.956 482.473 C 127.376 482.114, 127 485.291, 127 490.554 L 127 499.227 124.053 498.794 C 122.432 498.557, 121.333 498.730, 121.612 499.181 C 121.890 499.631, 123.441 500, 125.059 500 L 128 500 128 493.559 C 128 490.016, 128.354 486.900, 128.786 486.632 C 129.218 486.365, 131.130 489.054, 133.036 492.607 C 136.432 498.940, 138.642 500.634, 142.474 499.839 C 143.371 499.652, 144.082 499.163, 144.053 498.750 C 144.024 498.337, 144 491.925, 144 484.500 L 144 471 140.750 471.150 C 137.725 471.289, 137.690 471.329, 140.250 471.716 M 148.460 472.244 C 148.170 472.999, 148.076 478.990, 148.252 485.558 L 148.570 497.500 148.785 484.750 L 149 472 151.448 472 C 153.695 472, 153.920 472.429, 154.198 477.241 C 154.449 481.593, 154.839 482.531, 156.500 482.777 C 158.389 483.057, 158.398 483.011, 156.668 481.941 C 155.225 481.049, 154.907 479.821, 155.168 476.154 C 155.496 471.553, 155.463 471.496, 152.243 471.186 C 150.169 470.986, 148.795 471.371, 148.460 472.244 M 164 476.417 C 164 479.396, 163.539 482.062, 162.975 482.342 C 162.411 482.621, 162.524 482.736, 163.225 482.596 C 164.012 482.440, 164.616 480.362, 164.802 477.171 C 165.079 472.434, 165.310 472, 167.552 472 L 170 472 170 485.500 L 170 499 167.500 499 C 165.111 499, 165 498.733, 165 493 L 165 487 159.500 487 L 154 487 154 493.113 L 154 499.227 151.104 498.802 C 149.164 498.517, 148.356 498.765, 148.658 499.551 C 148.949 500.310, 150.236 500.495, 152.294 500.074 C 155.404 499.438, 155.479 499.294, 155.489 493.961 L 155.500 488.500 159.750 488.193 L 164 487.885 164 494.006 L 164 500.127 167.250 499.813 L 170.500 499.500 170.777 485.250 L 171.055 471 167.527 471 L 164 471 164 476.417 M 188.888 473.750 C 187.024 475.262, 185.363 477.400, 185.197 478.500 C 184.985 479.898, 185.497 479.539, 186.897 477.308 C 187.998 475.553, 190.160 473.433, 191.700 472.598 C 193.240 471.763, 193.999 471.062, 193.388 471.040 C 192.776 471.018, 190.751 472.238, 188.888 473.750 M 203.364 472.506 C 207.011 474.408, 207.937 474.420, 205.441 472.532 C 204.374 471.724, 202.825 471.052, 202 471.038 C 201.175 471.024, 201.789 471.685, 203.364 472.506 M 214.214 482.750 L 214.428 494.500 214.747 483.250 C 215.064 472.043, 215.075 472, 217.533 472 C 219.990 472, 220 472.040, 220 481.929 C 220 492.646, 220.967 495, 225.371 495 C 229.350 495, 230 493.208, 230 482.234 L 230 471.867 232.750 472.184 L 235.500 472.500 235.463 482 C 235.418 493.785, 234.706 496.553, 231.237 498.435 C 229.732 499.252, 229.013 499.938, 229.639 499.960 C 231.701 500.032, 235.012 496.557, 235.907 493.380 C 236.390 491.664, 236.722 486.039, 236.643 480.880 L 236.500 471.500 233 471.500 L 229.500 471.500 229 482.500 C 228.520 493.053, 228.406 493.513, 226.195 493.827 C 221.781 494.453, 221 492.582, 221 481.378 L 221 471 217.500 471 L 214 471 214.214 482.750 M 266.964 471.366 C 266.709 471.619, 266.637 478.193, 266.803 485.973 L 267.107 500.119 270.303 499.809 C 273.480 499.502, 273.503 499.459, 274 493 L 274.500 486.500 276.590 489.500 C 277.739 491.150, 279.671 494.300, 280.883 496.500 C 282.681 499.762, 283.630 500.500, 286.033 500.500 C 287.652 500.500, 289.157 500.034, 289.375 499.464 C 289.616 498.838, 288.504 498.576, 286.567 498.802 C 283.481 499.163, 283.169 498.847, 278.208 490.338 L 273.055 481.500 273.027 490.250 C 273 498.909, 272.974 499, 270.500 499 L 268 499 268 485.500 C 268 472.080, 268.014 472, 270.300 472 C 271.565 472, 273.196 472.563, 273.925 473.250 C 274.994 474.259, 275.163 474.211, 274.798 473 C 274.378 471.606, 268.051 470.287, 266.964 471.366 M 297.257 473.955 C 296.024 475.519, 294.757 477.632, 294.444 478.649 C 294.130 479.667, 294.603 479.240, 295.495 477.700 C 296.387 476.160, 298.553 474.024, 300.308 472.954 C 302.802 471.433, 303.063 471.019, 301.500 471.059 C 300.400 471.087, 298.491 472.391, 297.257 473.955 M 332.998 471.750 C 332.996 472.163, 336.622 472.352, 341.054 472.172 C 350.960 471.769, 354 473.231, 354 478.401 C 354 480.246, 353.315 482.323, 352.478 483.018 C 351.134 484.134, 351.192 484.446, 352.978 485.697 C 355.745 487.635, 355.758 494.242, 353 497 C 350.565 499.435, 350.502 500, 352.667 500 C 353.583 500, 354.032 499.699, 353.664 499.331 C 353.297 498.963, 353.715 497.867, 354.595 496.895 C 356.847 494.406, 356.807 488.549, 354.521 486.023 C 353.084 484.436, 352.922 483.678, 353.824 482.776 C 356.012 480.588, 355.220 475.318, 352.365 473.073 C 350.176 471.351, 348.314 471, 341.365 471 C 336.764 471, 332.999 471.337, 332.998 471.750 M 359 485.500 L 359 500 362.500 500 L 366 500 366 485.500 L 366 471 362.500 471 L 359 471 359 485.500 M 369.664 471.735 C 369.376 472.201, 370.582 472.414, 372.344 472.208 C 375.423 471.849, 375.750 472.176, 380.767 480.667 C 383.638 485.525, 385.980 489.050, 385.973 488.500 C 385.966 487.950, 383.772 483.900, 381.098 479.500 C 376.927 472.637, 375.806 471.456, 373.212 471.194 C 371.548 471.025, 369.952 471.269, 369.664 471.735 M 388.250 471.716 L 391 472.133 391 485.566 L 391 499 388.250 498.988 C 385.923 498.978, 384.987 498.043, 382.165 492.906 C 380.331 489.568, 378.641 487.026, 378.409 487.258 C 378.177 487.490, 379.633 490.451, 381.644 493.840 C 384.964 499.433, 385.609 500, 388.650 500 L 392 500 392 485.500 L 392 471 388.750 471.150 C 385.725 471.289, 385.690 471.329, 388.250 471.716 M 112 485.500 L 112 499 114.500 499 L 117 499 117 485.500 L 117 472 114.500 472 L 112 472 112 485.500 M 360 485.500 L 360 499 362.500 499 L 365 499 365 485.500 L 365 472 362.500 472 L 360 472 360 485.500 M 130.969 477.573 C 134.348 483.216, 135.577 484.211, 133.124 479.318 C 131.972 477.018, 130.486 474.800, 129.823 474.391 C 129.160 473.981, 129.676 475.413, 130.969 477.573 M 333.175 485.550 C 333.074 492.515, 332.550 498.050, 331.933 498.667 C 331.177 499.423, 333.435 499.719, 339.683 499.682 L 348.500 499.630 341 499.281 L 333.500 498.932 333.818 490.673 C 333.992 486.130, 333.958 480.408, 333.742 477.957 C 333.526 475.506, 333.271 478.923, 333.175 485.550 M 208.500 476.853 C 209.050 477.649, 209.767 481.270, 210.093 484.900 L 210.685 491.500 210.843 485.361 C 210.961 480.748, 210.565 478.747, 209.250 477.314 C 208.287 476.264, 207.950 476.057, 208.500 476.853 M 256.509 477 C 257.693 481.037, 259.122 482.942, 258.385 479.500 C 258.031 477.850, 257.299 476.050, 256.758 475.500 C 256.113 474.843, 256.027 475.358, 256.509 477 M 316.801 476.619 C 317.422 477.784, 317.645 479.021, 317.298 479.369 C 316.951 479.716, 317.192 480, 317.833 480 C 319.557 480, 319.250 477.451, 317.336 475.872 C 315.837 474.636, 315.784 474.710, 316.801 476.619 M 193.441 477.574 C 192.374 478.440, 192.136 478.818, 192.913 478.415 C 193.690 478.011, 195.715 477.349, 197.413 476.943 C 200.251 476.264, 200.294 476.196, 197.941 476.102 C 196.534 476.046, 194.509 476.708, 193.441 477.574 M 244.969 479.683 C 244.293 481.782, 243.293 484.063, 242.747 484.750 C 242.086 485.583, 242.098 486, 242.784 486 C 243.817 486, 247.340 477.006, 246.597 476.263 C 246.378 476.045, 245.646 477.584, 244.969 479.683 M 301.455 478.455 C 299.555 480.355, 299.027 481.880, 299.118 485.205 L 299.235 489.500 300.054 484.613 C 301.014 478.890, 301.684 478.053, 306.157 476.995 C 309.357 476.239, 309.380 476.200, 306.705 476.102 C 304.969 476.039, 302.978 476.931, 301.455 478.455 M 339 479.500 C 339 482.906, 339.100 482.996, 342.750 482.840 C 346.442 482.682, 346.450 482.674, 343.250 482.277 C 340.559 481.943, 340 481.444, 340 479.376 C 340 477.102, 340.335 476.907, 343.750 477.190 C 346.881 477.449, 347.488 477.863, 347.426 479.700 C 347.385 480.910, 347.723 481.671, 348.176 481.391 C 349.594 480.515, 349.075 477.243, 347.418 476.607 C 346.548 476.273, 344.298 476, 342.418 476 C 339.178 476, 339 476.183, 339 479.500 M 202.325 478.645 C 202.778 479.327, 203.513 482.048, 203.957 484.692 L 204.765 489.500 204.882 485.361 C 204.959 482.679, 204.384 480.550, 203.250 479.314 C 202.287 478.264, 201.871 477.964, 202.325 478.645 M 310.032 477.550 C 309.979 479.283, 312.265 481.008, 314.450 480.884 C 316.430 480.772, 316.433 480.751, 314.525 480.267 C 313.439 479.992, 311.990 479.032, 311.307 478.133 C 310.623 477.235, 310.049 476.973, 310.032 477.550 M 250.139 482.030 C 249.508 483.842, 249.196 485.529, 249.447 485.780 C 249.698 486.031, 250.214 484.997, 250.594 483.483 L 251.285 480.729 252.607 483.115 C 253.334 484.427, 253.929 485.050, 253.929 484.500 C 253.929 483.950, 253.335 482.428, 252.609 481.118 L 251.288 478.735 250.139 482.030 M 184.272 485 C 184.272 487.475, 184.467 488.488, 184.706 487.250 C 184.944 486.012, 184.944 483.988, 184.706 482.750 C 184.467 481.512, 184.272 482.525, 184.272 485 M 293.151 485.500 C 293.052 488.953, 293.632 491.524, 295.026 493.810 C 296.136 495.631, 296.852 497.431, 296.618 497.810 C 296.384 498.190, 297.309 498.567, 298.674 498.649 C 301.123 498.796, 301.129 498.778, 299.086 497.348 C 296.025 495.203, 294.637 492.150, 293.928 486 L 293.294 480.500 293.151 485.500 M 375.032 490.363 L 375 499.227 372.053 498.794 C 370.432 498.557, 369.333 498.730, 369.612 499.181 C 369.890 499.631, 371.441 500, 373.059 500 L 376 500 376 493.700 C 376 490.235, 376.452 486.948, 377.004 486.396 C 377.675 485.725, 377.521 484.749, 376.536 483.446 C 375.203 481.685, 375.061 482.341, 375.032 490.363 M 190.232 486 C 190.232 487.925, 190.438 488.712, 190.689 487.750 C 190.941 486.788, 190.941 485.212, 190.689 484.250 C 190.438 483.288, 190.232 484.075, 190.232 486 M 259.499 484.750 C 259.891 485.712, 260.890 488.437, 261.718 490.804 C 262.547 493.172, 263.415 494.918, 263.648 494.686 C 264.179 494.155, 260.049 483, 259.321 483 C 259.027 483, 259.107 483.788, 259.499 484.750 M 306.667 483.667 C 306.300 484.033, 306 485.608, 306 487.167 C 306 489.648, 306.373 490, 309 490 C 312.001 490, 313.105 491.439, 310.750 492.280 C 310.063 492.525, 309.808 493.058, 310.183 493.463 C 311.264 494.628, 313 493.073, 313 490.941 C 313 489.435, 312.302 489, 309.887 489 C 306.996 489, 306.805 488.785, 307.213 486 C 307.689 482.759, 307.667 482.666, 306.667 483.667 M 317.835 489.922 C 318.151 495.508, 318.014 495.929, 315.442 497.276 C 313.706 498.186, 313.130 498.962, 313.857 499.412 C 314.486 499.800, 315 499.672, 315 499.126 C 315 498.581, 315.900 497.849, 317 497.500 C 318.727 496.952, 319 495.987, 319 490.433 C 319 486.895, 318.663 483.999, 318.250 483.998 C 317.837 483.997, 317.651 486.663, 317.835 489.922 M 339.190 490.750 C 339.472 494.161, 339.789 494.528, 342.704 494.810 C 344.466 494.980, 346.828 494.627, 347.954 494.025 C 350.009 492.925, 350.742 489.577, 349.144 488.589 C 348.674 488.298, 348.497 489.151, 348.752 490.484 C 349.118 492.399, 348.720 493.023, 346.858 493.454 C 341.978 494.584, 340 493.781, 340 490.671 C 340 488.133, 340.307 487.826, 342.435 488.232 C 343.775 488.488, 345.462 488.323, 346.185 487.864 C 347.006 487.344, 345.879 487.025, 343.190 487.015 L 338.879 487 339.190 490.750 M 196.667 489.667 C 196.300 490.033, 196 491.248, 196 492.367 C 196 493.948, 195.733 494.133, 194.800 493.200 C 194.140 492.540, 193.127 492.014, 192.550 492.032 C 190.659 492.089, 195.331 495, 197.314 495 C 198.891 495, 199.024 494.733, 198.036 493.544 C 196.309 491.463, 197.637 489.736, 199.995 490.997 C 202.365 492.266, 204 492.280, 204 491.031 C 204 490.499, 203.371 490.304, 202.601 490.600 C 201.832 490.895, 200.905 490.656, 200.542 490.068 C 199.802 488.871, 197.682 488.651, 196.667 489.667 M 300 490.769 C 300 492.543, 304.205 495.013, 306.973 494.864 L 309.500 494.728 307 494.276 C 305.625 494.028, 303.488 492.886, 302.250 491.738 C 301.012 490.590, 300 490.154, 300 490.769 M 184.639 492.498 C 184.281 493.430, 184.437 493.848, 185.011 493.493 C 185.555 493.157, 186 493.341, 186 493.902 C 186 494.463, 186.948 495.805, 188.106 496.884 C 189.355 498.048, 189.903 499.348, 189.452 500.078 C 188.914 500.949, 189.102 501.052, 190.095 500.429 C 190.868 499.946, 192.400 499.659, 193.500 499.791 C 194.641 499.929, 194.112 499.406, 192.270 498.573 C 190.493 497.770, 188.188 495.713, 187.148 494.002 C 185.646 491.533, 185.128 491.223, 184.639 492.498 M 208.477 494.073 C 208.044 495.436, 208.383 496.559, 209.464 497.350 C 211.443 498.797, 210.468 502.393, 208.319 501.569 C 207.536 501.269, 207.153 501.439, 207.468 501.948 C 207.782 502.457, 208.838 502.813, 209.813 502.739 C 211.900 502.582, 212.146 499.084, 210.233 496.780 C 209.536 495.940, 209.246 494.521, 209.590 493.627 C 209.933 492.732, 209.971 492, 209.674 492 C 209.378 492, 208.839 492.933, 208.477 494.073 M 239.098 495.149 C 237.503 499.725, 237.642 500, 241.552 500 C 244.600 500, 245.253 499.574, 246.150 497 C 247.111 494.243, 247.574 494, 251.879 494 C 256.164 494, 256.658 494.255, 257.694 497 C 258.609 499.423, 259.408 500, 261.854 500 C 265.344 500, 266.304 499.020, 264.840 496.952 C 264.001 495.768, 263.915 495.823, 264.374 497.250 C 264.822 498.641, 264.348 499, 262.066 499 C 259.776 499, 258.984 498.394, 258.150 496 C 257.160 493.160, 256.813 493, 251.631 493 C 246.364 493, 246.134 493.112, 245.500 496 C 244.947 498.517, 244.360 499, 241.853 499 C 238.762 499, 238.701 498.686, 240.744 493.250 C 241.003 492.563, 240.985 492, 240.705 492 C 240.425 492, 239.702 493.417, 239.098 495.149 M 215 495.769 C 215 497.230, 219.017 500.022, 220.973 499.921 C 222.312 499.852, 222.315 499.775, 221 499.294 C 220.175 498.992, 218.488 497.824, 217.250 496.698 C 216.012 495.573, 215 495.154, 215 495.769" stroke="none" fill="#158baa" fill-rule="evenodd"/></svg>