<?xml version="1.0" standalone="no"?>
<!DOCTYPE svg PUBLIC "-//W3C//DTD SVG 20010904//EN"
 "http://www.w3.org/TR/2001/REC-SVG-20010904/DTD/svg10.dtd">
<svg version="1.0" xmlns="http://www.w3.org/2000/svg"
 width="611.000000pt" height="430.000000pt" viewBox="0 0 611.000000 430.000000"
 preserveAspectRatio="xMidYMid meet">

<g transform="translate(0.000000,430.000000) scale(0.100000,-0.100000)"
fill="#000000" stroke="none">
<path d="M2565 4078 c-167 -144 -522 -498 -654 -653 -682 -798 -1048 -1647
-1142 -2645 -16 -164 -18 -654 -4 -669 14 -14 1115 -20 1115 -6 0 6 -22 61
-50 123 -228 517 -335 1075 -302 1572 56 818 398 1536 1101 2309 40 45 72 81
70 81 -2 0 -62 -51 -134 -112z"/>
<path d="M2241 2764 c0 -11 3 -14 6 -6 3 7 2 16 -1 19 -3 4 -6 -2 -5 -13z"/>
<path d="M2233 2725 c0 -8 4 -15 9 -15 4 0 8 4 8 9 0 6 -4 12 -8 15 -5 3 -9
-1 -9 -9z"/>
<path d="M2212 2688 c-7 -9 -6 -17 3 -25 10 -10 14 -9 19 3 4 10 2 13 -6 8 -8
-5 -9 -2 -5 9 8 20 3 22 -11 5z"/>
<path d="M2198 2647 c9 -10 7 -19 -4 -35 -8 -12 -13 -30 -10 -40 3 -9 1 -24
-5 -32 -10 -13 -10 -13 -6 1 3 9 1 22 -4 30 -7 11 -9 10 -10 -6 -1 -11 -1 -23
0 -27 0 -4 -10 -28 -23 -54 -13 -26 -22 -53 -19 -61 3 -7 -1 -13 -8 -13 -10 0
-10 -3 -2 -11 6 -6 9 -19 6 -28 -4 -9 -3 -13 2 -9 4 4 9 26 10 48 2 36 15 72
15 41 0 -7 5 -9 10 -6 15 9 12 -4 -5 -21 -18 -19 -19 -34 -2 -34 9 0 8 -3 -2
-9 -7 -5 -13 -20 -13 -35 0 -33 -4 -33 -21 1 l-15 27 -8 -35 c-4 -19 -7 -40
-5 -46 1 -7 -3 -13 -10 -13 -8 0 -7 -5 2 -17 8 -9 9 -14 3 -10 -7 4 -14 -1
-17 -12 -3 -13 0 -18 8 -15 9 4 11 -3 7 -23 -4 -22 -6 -24 -12 -9 -5 16 -7 15
-18 -9 -7 -14 -12 -31 -11 -38 0 -7 4 -3 9 8 l9 20 0 -20 c1 -17 3 -17 11 -5
11 17 13 1 4 -25 -5 -12 -9 -13 -14 -5 -9 14 -30 5 -30 -13 0 -7 4 -6 10 3 19
29 10 -9 -10 -46 -12 -20 -19 -38 -17 -41 7 -6 38 27 33 35 -2 4 3 13 12 21
13 13 14 12 8 -13 -8 -31 -28 -56 -46 -56 -7 0 -10 -7 -7 -15 4 -8 2 -17 -3
-20 -5 -3 -9 -13 -9 -23 0 -9 -2 -30 -6 -47 -4 -24 -3 -26 4 -10 12 26 13 10
2 -37 -6 -26 -5 -39 3 -42 6 -3 1 -3 -11 0 -20 5 -23 2 -22 -23 1 -17 3 -21 6
-10 2 9 8 15 13 12 5 -3 7 -12 3 -20 -3 -8 -1 -15 4 -15 5 0 10 -8 10 -17 0
-16 -1 -16 -11 -1 -8 14 -11 13 -23 -10 -10 -19 -11 -27 -2 -33 6 -3 14 -36
16 -71 4 -53 2 -66 -13 -78 -16 -13 -17 -13 -11 2 3 9 8 34 12 55 5 34 4 35
-6 13 -12 -28 -21 -60 -20 -75 0 -24 37 -115 44 -109 4 4 7 -15 7 -43 0 -33
-5 -55 -15 -63 -10 -9 -15 -9 -15 -1 0 6 5 11 10 11 6 0 10 18 10 40 0 22 -4
40 -10 40 -5 0 -13 18 -16 40 -8 49 -24 63 -24 21 0 -17 5 -31 10 -31 7 0 7
-6 0 -19 -5 -11 -9 -32 -9 -48 1 -17 3 -21 6 -10 2 9 9 15 13 12 5 -3 5 -17
-1 -32 -7 -18 -6 -30 1 -37 5 -5 10 -19 10 -30 0 -20 0 -20 -15 0 -13 17 -14
17 -15 2 0 -9 5 -20 10 -23 6 -3 10 -12 10 -18 0 -7 -4 -6 -11 3 -8 11 -9 8
-4 -15 4 -16 6 -46 5 -65 -1 -50 21 -161 31 -154 12 7 11 -3 0 -25 -6 -9 -6
-23 -1 -31 6 -10 11 -4 17 21 7 26 9 9 10 -73 0 -103 15 -174 34 -162 5 3 9
-2 9 -11 0 -9 -4 -13 -10 -10 -14 9 -12 -5 5 -35 13 -24 14 -22 11 32 -1 32 1
53 5 47 4 -8 9 -7 13 2 3 8 4 2 1 -13 -3 -15 -1 -30 5 -33 5 -3 10 -12 10 -18
0 -7 -4 -6 -10 3 -7 11 -10 7 -10 -18 0 -18 4 -31 8 -28 6 4 8 -38 2 -54 -2
-5 -2 -11 7 -45 2 -11 5 -26 5 -32 1 -9 5 -9 13 -3 8 6 12 6 12 -3 0 -6 4 -21
8 -32 l8 -20 -16 20 c-15 19 -16 18 -4 -13 l12 -34 14 34 c8 18 14 40 13 48
-2 11 1 10 9 -3 7 -13 7 -22 0 -31 -6 -7 -12 -21 -14 -32 -1 -10 -6 -25 -11
-32 -6 -10 -3 -12 10 -10 12 2 19 -4 22 -17 2 -16 1 -17 -7 -5 -6 8 -11 10
-11 5 0 -6 7 -20 15 -31 8 -12 11 -24 8 -28 -3 -3 -1 -6 6 -6 7 0 10 -4 7 -9
-4 -5 2 -8 11 -6 10 2 22 4 26 4 4 1 3 10 -3 21 -6 10 -17 17 -24 14 -8 -3
-16 -1 -19 3 -3 5 3 9 13 10 11 1 22 -2 25 -7 3 -5 11 -7 19 -4 10 4 12 -10
12 -58 -1 -35 -5 -68 -9 -74 -8 -14 17 -26 37 -18 8 3 17 0 22 -7 5 -8 3 -10
-6 -4 -9 6 -11 4 -5 -5 6 -10 11 -10 20 3 7 10 16 17 20 17 4 0 3 -6 -3 -13
-7 -8 -7 -18 -2 -27 15 -24 11 -37 -5 -16 -8 11 -15 16 -15 11 0 -4 -8 -1 -17
7 -10 8 -25 18 -33 22 -9 5 -8 2 2 -7 10 -8 14 -17 10 -21 -4 -4 -2 -7 3 -6
21 5 29 -1 15 -10 -11 -7 -11 -10 -2 -10 8 0 10 -5 6 -12 -6 -10 -5 -10 8 -1
8 7 18 10 22 6 3 -4 32 -6 64 -4 41 1 53 -1 42 -9 -13 -9 -13 -10 0 -10 12 0
12 -2 2 -9 -8 -4 30 -8 87 -8 56 0 101 4 101 9 0 4 9 8 21 8 11 0 17 -4 14
-10 -8 -12 52 -12 115 0 44 9 43 9 -15 6 -33 -2 -50 -2 -37 1 12 2 20 8 18 11
-6 10 152 -3 161 -12 5 -5 -11 -5 -34 -1 -30 5 -43 3 -43 -5 0 -8 24 -10 88
-5 50 4 103 3 123 -3 21 -6 42 -6 50 -1 12 7 12 9 0 9 -8 0 -12 3 -8 6 10 10
-26 42 -41 36 -11 -4 -14 -1 -9 11 4 12 2 14 -10 10 -12 -5 -15 -2 -11 8 3 9
-8 24 -28 39 -18 14 -36 33 -39 43 -4 9 -18 24 -33 31 -15 8 -36 29 -47 46
-11 17 -32 34 -46 36 -21 5 -25 11 -23 31 1 16 -6 32 -21 45 -14 12 -21 26
-18 32 4 6 -1 5 -11 -3 -24 -20 -60 -23 -45 -4 9 9 8 13 0 13 -7 0 -9 5 -5 12
5 8 2 9 -9 5 -22 -8 -22 7 0 24 14 12 16 12 8 0 -6 -10 -4 -12 5 -6 7 5 11 4
7 -1 -3 -5 1 -20 9 -34 7 -14 14 -19 15 -12 1 6 2 18 3 25 1 6 -13 27 -31 46
-18 18 -30 37 -28 41 3 4 -2 11 -11 14 -8 3 -12 11 -8 17 4 8 3 9 -4 5 -7 -4
-13 -2 -13 3 -3 26 -4 30 -11 36 -3 4 -11 -3 -17 -14 -9 -16 -9 -19 2 -16 8 4
13 -3 14 -16 1 -11 10 -27 20 -35 17 -13 17 -13 0 -14 -10 0 -22 11 -27 25 -5
14 -14 25 -20 25 -13 0 -9 59 4 67 5 4 6 1 1 -7 -5 -9 -4 -11 4 -6 6 4 9 12 5
17 -3 5 -10 6 -16 3 -8 -5 -9 -1 -5 10 4 10 1 19 -8 22 -8 4 -12 11 -8 18 4 6
-2 4 -13 -4 -29 -22 -30 -24 -11 -17 11 4 16 3 12 -3 -4 -6 2 -7 12 -4 14 5
15 4 4 -4 -10 -7 -21 -7 -32 -1 -24 12 -32 11 -23 -3 5 -7 3 -8 -6 -3 -10 6
-6 15 19 35 26 23 29 29 16 34 -9 3 -13 11 -9 17 4 8 3 9 -5 5 -9 -6 -9 -11
-1 -21 8 -9 6 -14 -6 -19 -21 -8 -24 -8 -24 5 0 5 5 7 10 4 13 -8 13 1 -1 26
-7 14 -7 24 0 32 17 21 -4 39 -45 41 l-39 1 -1 62 c-1 50 2 61 12 52 7 -5 4 7
-7 28 -10 20 -19 42 -19 48 0 6 -11 22 -24 34 -15 14 -22 29 -19 39 4 10 2 13
-5 8 -6 -3 -13 -2 -17 4 -3 5 2 10 12 10 17 1 17 1 1 10 -11 7 -15 19 -12 34
2 14 -3 31 -12 40 -8 9 -13 20 -9 25 3 6 -1 16 -8 23 -8 7 -12 20 -10 29 7 25
-18 35 -34 14 -7 -11 -13 -14 -13 -9 0 6 5 15 12 22 15 15 15 97 -1 115 -6 8
-9 22 -5 31 3 9 2 16 -2 16 -5 0 -10 12 -10 28 -2 52 -17 92 -35 92 -6 0 -7
-4 -4 -10 3 -5 -1 -20 -9 -32 -13 -18 -16 -19 -16 -5 0 9 5 17 10 17 6 0 10 5
10 11 0 6 -7 9 -15 5 -8 -3 -15 -1 -15 4 0 6 7 10 15 10 8 0 15 7 15 15 0 18
-16 20 -23 3 -3 -7 -4 -3 -4 9 1 12 5 19 9 17 10 -7 10 4 -1 44 -8 25 -7 32 2
29 7 -2 13 -14 15 -28 5 -46 12 -69 22 -69 6 0 6 10 0 26 -6 14 -7 30 -4 35 9
15 -5 61 -16 54 -11 -7 -33 32 -27 48 3 7 9 1 15 -13 7 -19 11 -21 16 -10 3 8
4 24 2 35 -3 11 -6 58 -7 105 -1 47 -4 68 -6 47 -7 -62 -18 -34 -14 35 3 47 6
57 12 38 4 -16 7 3 8 55 0 70 -1 78 -13 62 -13 -16 -14 -14 -11 25 5 69 7 75
16 43 6 -25 7 -22 6 20 -1 28 -6 53 -12 57 -6 4 -2 13 10 22 11 9 14 16 8 16
-14 0 -18 30 -5 30 10 0 10 -2 15 105 2 44 10 92 17 108 11 23 11 31 0 52 -7
14 -18 25 -23 25 -5 0 -5 -6 1 -13z m18 -52 c-6 -24 -26 -36 -26 -15 0 6 5 10
10 10 6 0 10 10 10 22 0 12 3 19 6 15 4 -3 4 -18 0 -32z m-49 -103 c-10 -10
-14 -22 -10 -27 5 -4 2 -5 -5 -1 -7 4 -9 13 -6 19 14 24 27 37 32 32 3 -3 -2
-13 -11 -23z m22 -72 c0 -23 -1 -23 -9 -5 -5 11 -9 29 -9 40 -1 17 1 17 9 5 5
-8 9 -26 9 -40z m-17 -65 c-2 -19 -10 -40 -18 -46 -12 -9 -14 -5 -13 27 0 31
2 35 9 19 8 -20 9 -20 9 1 1 17 9 34 16 34 0 0 -1 -16 -3 -35z m-62 -47 c0
-19 -16 -5 -17 14 -2 18 0 20 7 8 5 -8 10 -18 10 -22z m57 -30 c-3 -8 -6 -5
-6 6 -1 11 2 17 5 13 3 -3 4 -12 1 -19z m-90 -220 c-3 -8 -6 -5 -6 6 -1 11 2
17 5 13 3 -3 4 -12 1 -19z m-17 -53 c-13 -14 -25 -23 -27 -21 -6 6 30 46 41
46 5 0 -1 -11 -14 -25z m107 -117 c-3 -7 -5 -2 -5 12 0 14 2 19 5 13 2 -7 2
-19 0 -25z m-167 -247 c0 -72 -7 -62 -14 19 -3 43 -2 60 4 50 5 -8 10 -39 10
-69z m213 -71 c-3 -11 0 -20 6 -20 6 0 11 -7 11 -15 0 -8 -4 -15 -10 -15 -5 0
-10 7 -10 15 0 8 -5 15 -10 15 -7 0 -7 6 0 20 6 11 12 20 14 20 2 0 2 -9 -1
-20z m-229 -59 c-4 -17 -9 -30 -11 -27 -3 2 -2 19 2 36 4 17 9 30 11 27 2 -2
1 -18 -2 -36z m218 10 c15 -18 14 -19 -6 -17 -17 1 -22 6 -18 19 5 21 4 21 24
-2z m50 -150 c-7 -22 -9 -18 -9 23 0 39 2 44 9 26 5 -13 5 -35 0 -49z m19 -74
c-17 -17 -13 -27 12 -28 16 -1 17 -3 5 -6 -11 -3 -15 -10 -11 -20 4 -10 2 -14
-6 -12 -7 3 -13 9 -13 14 0 6 -4 15 -10 22 -7 8 -4 20 9 37 10 13 20 20 22 14
2 -5 -2 -15 -8 -21z m-274 -24 c-3 -10 -5 -2 -5 17 0 19 2 27 5 18 2 -10 2
-26 0 -35z m-9 -63 l0 -25 -8 25 c-4 14 -8 39 -8 55 l0 30 8 -30 c4 -16 8 -41
8 -55z m-13 -72 c-9 -37 3 -76 17 -57 8 11 8 10 4 -4 -3 -10 -6 -26 -6 -35 -1
-9 -10 2 -21 26 -11 24 -18 54 -15 70 2 15 5 38 6 52 l1 25 10 -24 c5 -14 7
-37 4 -53z m295 57 c14 -16 10 -18 -14 -9 -9 3 -16 10 -16 15 0 14 16 11 30
-6z m-274 -93 c-11 -10 -13 3 -7 43 l6 40 3 -39 c2 -21 1 -41 -2 -44z m353
-34 c-7 -14 -8 -23 -1 -30 7 -7 10 -4 9 7 -1 10 4 20 12 23 10 3 12 0 8 -12
-4 -9 -2 -16 3 -16 6 0 10 -4 10 -8 0 -5 -15 -9 -34 -9 -35 0 -38 7 -18 45 7
12 8 22 3 22 -5 0 -12 -6 -14 -12 -3 -7 -5 -1 -4 14 1 25 3 26 19 11 14 -12
15 -20 7 -35z m239 -516 c6 -18 -15 -14 -22 4 -4 10 -1 14 6 12 6 -2 14 -10
16 -16z m67 8 c3 -5 1 -10 -4 -10 -6 0 -11 5 -11 10 0 6 2 10 4 10 3 0 8 -4
11 -10z m-498 -99 c0 -11 -5 -18 -9 -15 -4 3 -5 11 -1 19 7 21 12 19 10 -4z
m600 -48 c0 -7 -7 -13 -14 -13 -8 0 -11 -4 -8 -10 3 -5 2 -10 -3 -10 -5 0 -9
18 -8 39 1 36 2 38 17 23 9 -10 16 -23 16 -29z m80 -98 c0 -8 -9 -15 -21 -15
-15 0 -17 3 -8 12 15 15 16 32 2 23 -5 -3 -10 2 -10 11 0 16 1 16 18 1 10 -10
19 -24 19 -32z m83 -90 c0 -5 -10 0 -21 12 -13 12 -18 26 -14 33 6 9 12 6 21
-11 7 -13 13 -28 14 -34z m70 -70 c7 -9 19 -14 27 -11 8 3 12 2 9 -3 -9 -14
-113 -24 -133 -12 -14 8 -8 9 25 5 41 -6 48 -2 43 29 -2 13 16 8 29 -8z m-437
-22 c-7 -2 -21 -2 -30 0 -10 3 -4 5 12 5 17 0 24 -2 18 -5z m84 1 c-3 -3 -12
-4 -19 -1 -8 3 -5 6 6 6 11 1 17 -2 13 -5z m-164 -11 c-7 -2 -21 -2 -30 0 -10
3 -4 5 12 5 17 0 24 -2 18 -5z m75 -10 c-10 -2 -26 -2 -35 0 -10 3 -2 5 17 5
19 0 27 -2 18 -5z m496 -2 c4 -5 -3 -7 -14 -4 -23 6 -26 13 -6 13 8 0 17 -4
20 -9z"/>
<path d="M1947 1666 c-4 -10 -7 -25 -6 -34 0 -11 4 -9 10 7 5 13 8 29 6 35 -2
5 -6 2 -10 -8z"/>
<path d="M2410 956 c0 -2 7 -7 16 -10 8 -3 12 -2 9 4 -6 10 -25 14 -25 6z"/>
<path d="M1970 919 c0 -5 5 -7 10 -4 6 3 10 8 10 11 0 2 -4 4 -10 4 -5 0 -10
-5 -10 -11z"/>
<path d="M2432 917 c-7 -8 -10 -22 -6 -31 7 -19 24 -21 24 -3 0 8 4 7 10 -3
14 -22 11 1 -4 28 -10 20 -14 21 -24 9z m18 -17 c0 -5 -4 -10 -10 -10 -5 0
-10 5 -10 10 0 6 5 10 10 10 6 0 10 -4 10 -10z"/>
<path d="M1982 880 c0 -14 2 -19 5 -12 2 6 2 18 0 25 -3 6 -5 1 -5 -13z"/>
<path d="M2780 411 c0 -6 4 -13 10 -16 6 -3 7 1 4 9 -7 18 -14 21 -14 7z"/>
<path d="M2214 305 c-4 -8 -10 -15 -16 -15 -5 0 -6 5 -3 10 3 6 1 10 -4 10
-17 0 -13 -14 9 -33 12 -10 18 -23 14 -30 -4 -6 -3 -9 1 -5 9 8 16 78 9 78 -3
0 -7 -7 -10 -15z"/>
<path d="M2291 114 c0 -11 3 -14 6 -6 3 7 2 16 -1 19 -3 4 -6 -2 -5 -13z"/>
<path d="M2328 113 c12 -2 32 -2 45 0 12 2 2 4 -23 4 -25 0 -35 -2 -22 -4z"/>
</g>
</svg>
