<svg xmlns="http://www.w3.org/2000/svg" width="611" height="553" viewBox="0 0 611 553" version="1.1"><path d="M 269.992 11.012 C 268.812 12.668, 267.482 13.798, 267.037 13.523 C 266.046 12.910, 263.671 15.633, 263.362 17.737 C 263.118 19.404, 270.542 12.629, 272.114 9.750 C 273.646 6.947, 272.328 7.730, 269.992 11.012 M 221.473 54.250 L 214.500 61.500 221.750 54.527 C 228.484 48.050, 229.457 47, 228.723 47 C 228.571 47, 225.308 50.263, 221.473 54.250 M 175.566 105.750 C 173.405 108.512, 173.232 108.976, 174.909 107.511 C 176.914 105.760, 179.558 102, 178.785 102 C 178.628 102, 177.180 103.688, 175.566 105.750 M 152.402 268 C 152.402 276.525, 152.556 280.012, 152.743 275.750 C 152.931 271.488, 152.931 264.512, 152.743 260.250 C 152.556 255.988, 152.402 259.475, 152.402 268 M 192.343 291.500 C 192.346 295.900, 192.522 297.576, 192.733 295.224 C 192.945 292.872, 192.942 289.272, 192.727 287.224 C 192.512 285.176, 192.339 287.100, 192.343 291.500 M 75.300 371 C 75.300 374.025, 75.487 375.262, 75.716 373.750 C 75.945 372.238, 75.945 369.762, 75.716 368.250 C 75.487 366.738, 75.300 367.975, 75.300 371 M 296 407.500 C 297.866 409.425, 299.617 411, 299.892 411 C 300.167 411, 298.866 409.425, 297 407.500 C 295.134 405.575, 293.383 404, 293.108 404 C 292.833 404, 294.134 405.575, 296 407.500 M 75.116 417.250 C 75.032 419.252, 75.476 419.996, 76.750 419.985 C 77.861 419.975, 78.086 419.701, 77.366 419.235 C 76.742 418.831, 76.007 417.600, 75.732 416.500 C 75.349 414.967, 75.205 415.142, 75.116 417.250 M 155.250 420.746 C 160.613 420.925, 169.387 420.925, 174.750 420.746 C 180.113 420.566, 175.725 420.419, 165 420.419 C 154.275 420.419, 149.887 420.566, 155.250 420.746 M 257.264 420.718 C 258.784 420.947, 261.034 420.941, 262.264 420.704 C 263.494 420.467, 262.250 420.279, 259.500 420.286 C 256.750 420.294, 255.744 420.488, 257.264 420.718 M 137.449 438.468 C 135.645 442.785, 135.649 443, 137.531 443 C 138.374 443, 139.341 442.276, 139.680 441.391 C 140.248 439.911, 140.371 439.911, 141.199 441.391 C 142.024 442.865, 145 443.709, 145 442.468 C 145 440.315, 141.797 435, 140.500 435 C 139.617 435, 138.247 436.557, 137.449 438.468 M 396 439 C 398.474 443.850, 400.519 444.343, 399.625 439.875 C 399.281 438.156, 399 436.356, 399 435.875 C 399 435.394, 397.866 435, 396.480 435 L 393.959 435 396 439 M 575.449 438.468 C 573.645 442.785, 573.649 443, 575.531 443 C 576.374 443, 577.341 442.276, 577.680 441.391 C 578.248 439.911, 578.371 439.911, 579.199 441.391 C 580.024 442.865, 583 443.709, 583 442.468 C 583 440.315, 579.797 435, 578.500 435 C 577.617 435, 576.247 436.557, 575.449 438.468 M 333.623 440.864 C 332.004 442.653, 332.099 442.727, 336 442.727 C 339.901 442.727, 339.996 442.653, 338.377 440.864 C 337.449 439.839, 336.380 439, 336 439 C 335.620 439, 334.551 439.839, 333.623 440.864 M 92.306 446.498 C 87.572 449.814, 85.058 463.707, 87.290 474.221 C 89.177 483.111, 96.733 486.757, 102.396 481.509 C 104.931 479.160, 105.068 478.573, 104.792 471.259 L 104.500 463.500 100.250 463.193 L 96 462.885 96 466.443 C 96 469.570, 96.302 470, 98.500 470 C 101.639 470, 101.897 473.103, 99 476 C 96.486 478.514, 95.765 478.503, 93.420 475.912 C 91.069 473.314, 90.140 460.489, 91.981 456.046 C 93.979 451.222, 98.460 451.001, 99.632 455.670 C 100.037 457.283, 100.744 457.928, 101.705 457.560 C 102.507 457.252, 103.352 457, 103.582 457 C 103.812 457, 104 455.615, 104 453.923 C 104 451.856, 103.041 449.887, 101.077 447.923 C 97.813 444.659, 95.474 444.279, 92.306 446.498 M 214.657 447.055 C 207.840 452.418, 207.150 474.983, 213.586 482.095 C 215.708 484.440, 220.289 484.568, 222.512 482.345 C 226.058 478.800, 227.176 471.665, 224.357 470.583 C 223.453 470.237, 222.648 470.076, 222.567 470.226 C 222.486 470.377, 221.978 471.846, 221.439 473.490 C 220.286 477.006, 217.190 477.980, 215.316 475.418 C 213.215 472.544, 213.541 456.788, 215.759 454.050 C 217.917 451.384, 220.753 452.167, 221.632 455.670 C 222.037 457.283, 222.744 457.928, 223.705 457.560 C 224.507 457.252, 225.352 457, 225.582 457 C 226.557 457, 225.884 452.677, 224.490 449.980 C 223.062 447.219, 220.260 445, 218.201 445 C 217.689 445, 216.094 445.925, 214.657 447.055 M 350.537 447.372 C 347.388 450.521, 346.011 455.885, 346.011 465 C 346.011 477.513, 349.040 484, 354.884 484 C 358.227 484, 360.313 481.853, 361.964 476.711 C 362.917 473.742, 362.918 472.607, 361.968 471.461 C 360.128 469.244, 359.263 469.672, 358.029 473.412 C 355.477 481.145, 350.986 477.543, 350.244 467.167 C 349.709 459.687, 351.139 453.544, 353.639 452.585 C 355.669 451.806, 356.922 452.664, 358.037 455.597 C 359.024 458.194, 359.724 458.460, 361.919 457.071 C 364.065 455.713, 360.756 447.665, 357.427 446.149 C 353.921 444.551, 353.236 444.673, 350.537 447.372 M 10 449.500 C 10 452.525, 10.325 453, 12.393 453 C 13.709 453, 15.059 453.712, 15.393 454.582 C 15.727 455.452, 16 462.427, 16 470.082 C 16 483.333, 16.096 484, 18 484 C 19.914 484, 20 483.333, 20 468.566 L 20 453.133 22.750 452.816 C 25.041 452.553, 25.552 451.958, 25.813 449.250 L 26.127 446 18.063 446 L 10 446 10 449.500 M 28 465 C 28 483.333, 28.070 484, 30 484 C 31.833 484, 32 483.333, 32 476 C 32 469.829, 32.318 468, 33.393 468 C 34.897 468, 35.148 468.465, 38.523 477.500 C 40.386 482.486, 41.200 483.553, 43.344 483.813 L 45.924 484.125 43.478 476.934 C 42.132 472.979, 40.550 469.162, 39.960 468.452 C 39.180 467.512, 39.272 466.936, 40.299 466.331 C 44.453 463.882, 45.445 453.106, 41.927 448.635 C 40.105 446.318, 39.140 446, 33.927 446 L 28 446 28 465 M 47.661 448.250 C 46.999 450.932, 47.805 475.636, 48.648 478.500 C 50.398 484.447, 57.246 486.045, 60.927 481.365 C 62.832 478.943, 63 477.407, 63 462.365 C 63 446.667, 62.919 446, 61 446 C 59.092 446, 59 446.667, 59 460.429 C 59 472.212, 58.712 475.145, 57.429 476.429 C 56.564 477.293, 55.696 478, 55.500 478 C 55.304 478, 54.436 477.293, 53.571 476.429 C 52.288 475.145, 52 472.212, 52 460.429 C 52 446.942, 51.876 446, 50.108 446 C 48.978 446, 47.993 446.905, 47.661 448.250 M 67 465 C 67 483.333, 67.070 484, 69 484 C 70.881 484, 71.006 483.302, 71.094 472.250 L 71.187 460.500 75.018 472 C 78.127 481.333, 79.240 483.560, 80.924 483.820 C 82.964 484.134, 83 483.807, 83 465.070 C 83 446.667, 82.930 446, 81 446 C 79.125 446, 78.993 446.703, 78.890 457.250 L 78.781 468.500 75.140 457.253 C 71.931 447.337, 71.234 446.005, 69.250 446.003 L 67 446 67 465 M 114.187 449.250 C 114.448 451.958, 114.959 452.553, 117.250 452.816 L 120 453.133 120 468.636 L 120 484.139 122.250 483.820 C 124.457 483.506, 124.505 483.208, 124.776 468.250 L 125.052 453 127.526 453 C 129.687 453, 130 452.557, 130 449.500 L 130 446 121.937 446 L 113.873 446 114.187 449.250 M 138 446.434 C 138 446.672, 136.425 454.514, 134.500 463.861 C 130.414 483.700, 130.390 484, 132.941 484 C 134.427 484, 135.078 483.004, 135.717 479.750 C 136.503 475.752, 136.771 475.482, 140.242 475.192 C 143.574 474.913, 143.993 475.156, 144.559 477.692 C 145.828 483.379, 146.174 484, 148.067 484 C 149.130 484, 150.003 483.438, 150.007 482.750 C 150.010 482.063, 148.356 473.512, 146.331 463.750 C 142.835 446.896, 142.532 446, 140.325 446 C 139.046 446, 138 446.195, 138 446.434 M 152 464.937 C 152 483.333, 152.070 484, 154 484 C 155.884 484, 156.007 483.292, 156.124 471.750 L 156.248 459.500 158.040 471.500 C 159.025 478.100, 159.870 483.613, 159.916 483.750 C 159.962 483.887, 160.848 484, 161.884 484 C 163.519 484, 163.965 482.581, 165.267 473.250 L 166.767 462.500 166.883 473.250 C 166.992 483.294, 167.131 484, 169 484 C 170.930 484, 171 483.333, 171 465 L 171 446 168 446 C 166.350 446, 165 446.251, 165 446.558 C 165 447.515, 162.981 461.319, 162.303 465 C 161.774 467.869, 161.373 466.516, 160.079 457.500 L 158.500 446.500 155.250 446.187 L 152 445.873 152 464.937 M 182.607 447.582 C 181.816 449.643, 181.816 480.357, 182.607 482.418 C 183.029 483.518, 184.512 484, 187.472 484 C 195.679 484, 199.005 478.482, 198.994 464.884 C 198.988 456.257, 197.643 450.643, 194.935 447.935 C 192.419 445.419, 183.535 445.165, 182.607 447.582 M 202 465 C 202 483.333, 202.070 484, 204 484 C 205.930 484, 206 483.333, 206 465 C 206 446.667, 205.930 446, 204 446 C 202.070 446, 202 446.667, 202 465 M 229.895 452.250 C 229.775 459.438, 229.776 463.107, 229.906 475.250 C 229.993 483.302, 230.160 484, 232 484 C 233.843 484, 234 483.333, 234 475.500 L 234 467 237.500 467 L 241 467 241 475.570 C 241 483.885, 241.067 484.130, 243.250 483.820 C 245.491 483.501, 245.500 483.424, 245.500 465 C 245.500 446.576, 245.491 446.499, 243.250 446.180 C 241.087 445.873, 241 446.153, 241 453.430 L 241 461 237.500 461 L 234 461 234 453.500 C 234 446.667, 233.822 446, 232 446 C 230.225 446, 229.988 446.702, 229.895 452.250 M 255 446.681 C 255 447.419, 260.710 478.027, 261.555 481.815 C 261.935 483.521, 262.653 484.047, 264.285 483.815 C 266.323 483.525, 266.756 482.139, 269.692 466.500 C 273.533 446.044, 273.536 446, 271.067 446 C 268.738 446, 268.585 446.483, 266.353 460.814 C 265.328 467.400, 264.319 471.371, 263.940 470.314 C 263.581 469.316, 262.454 463.438, 261.434 457.250 C 259.701 446.731, 259.432 446, 257.290 446 C 256.031 446, 255 446.306, 255 446.681 M 275.164 462.297 C 275.564 481.679, 276.402 484, 283 484 C 289.598 484, 290.436 481.679, 290.836 462.297 C 291.161 446.522, 291.108 446, 289.160 446 C 287.251 446, 287.131 446.745, 286.824 460.467 C 286.569 471.868, 286.172 475.261, 284.955 476.477 C 283.607 477.822, 283.159 477.837, 281.455 476.591 C 279.700 475.310, 279.465 473.670, 279.156 460.582 C 278.831 446.801, 278.703 446, 276.820 446 C 274.898 446, 274.840 446.575, 275.164 462.297 M 303.649 463.750 C 305.486 473.512, 306.992 482.063, 306.995 482.750 C 306.998 483.438, 308.089 484, 309.421 484 C 311.260 484, 311.974 483.340, 312.394 481.250 C 312.698 479.738, 314.115 472.200, 315.543 464.500 C 316.971 456.800, 318.382 449.488, 318.678 448.250 C 319.126 446.378, 318.801 446, 316.743 446 C 314.364 446, 314.203 446.427, 312.497 457.250 C 311.522 463.438, 310.405 469.108, 310.016 469.851 C 309.622 470.602, 308.755 467.712, 308.065 463.351 C 305.582 447.662, 305.056 446, 302.571 446 L 300.308 446 303.649 463.750 M 320.228 464.750 C 320.498 483.339, 320.519 483.503, 322.750 483.820 L 325 484.139 325 465.070 L 325 446 322.478 446 L 319.956 446 320.228 464.750 M 328 465 L 328 484 335.500 484 L 343 484 343 480.500 L 343 477 337.445 477 L 331.890 477 332.195 472.250 L 332.500 467.500 337.250 467.195 C 341.751 466.906, 342 466.739, 342 464 C 342 461.261, 341.751 461.094, 337.250 460.805 C 332.546 460.503, 332.497 460.464, 332.190 456.750 L 331.879 453 337.440 453 L 343 453 343 449.500 L 343 446 335.500 446 L 328 446 328 465 M 374 465 L 374 484 381 484 L 388 484 388 480.500 L 388 477 383 477 L 378 477 378 461.500 C 378 446.667, 377.914 446, 376 446 C 374.070 446, 374 446.667, 374 465 M 395.506 448.250 C 393.905 455.020, 389 480.583, 389 482.156 C 389 483.314, 389.721 484, 390.939 484 C 392.470 484, 393.019 483.054, 393.552 479.500 C 394.217 475.068, 394.285 475, 398.055 475 C 401.760 475, 401.909 475.136, 402.719 479.250 C 403.371 482.561, 404.046 483.571, 405.778 483.820 C 407 483.995, 408.004 483.770, 408.008 483.320 C 408.013 482.869, 406.329 474.288, 404.266 464.250 C 400.748 447.137, 400.375 446, 398.276 446 C 396.780 446, 395.862 446.745, 395.506 448.250 M 410 465 C 410 483.333, 410.070 484, 412 484 C 413.879 484, 414.008 483.290, 414.131 472.250 L 414.263 460.500 415.881 472 C 417.329 482.286, 417.721 483.532, 419.591 483.799 C 421.531 484.076, 421.791 483.288, 423.217 472.799 L 424.754 461.500 424.877 472.750 C 424.992 483.292, 425.126 484, 427 484 C 428.930 484, 429 483.333, 429 465 L 429 446 426.079 446 C 422.770 446, 422.782 445.968, 420.948 459.998 C 420.337 464.672, 419.726 468.607, 419.590 468.743 C 419.455 468.878, 418.790 464.604, 418.113 459.245 C 416.458 446.148, 416.400 446, 412.933 446 L 410 446 410 465 M 439 449.500 C 439 452.722, 439.238 453, 442 453 L 445 453 445 468.500 C 445 483.333, 445.086 484, 447 484 C 448.914 484, 449 483.333, 449 468.500 L 449 453 452 453 C 454.762 453, 455 452.722, 455 449.500 L 455 446 447 446 L 439 446 439 449.500 M 457 465 C 457 483.203, 457.082 484, 458.960 484 C 460.724 484, 460.948 483.178, 461.210 475.750 L 461.500 467.500 465.250 467.190 L 469 466.879 469 475.440 C 469 483.333, 469.156 484, 471 484 C 472.930 484, 473 483.333, 473 465 C 473 446.667, 472.930 446, 471 446 C 469.178 446, 469 446.667, 469 453.500 L 469 461 465 461 L 461 461 461 453.500 C 461 446.667, 460.822 446, 459 446 C 457.070 446, 457 446.667, 457 465 M 478.680 464.250 C 476.647 474.288, 474.987 482.869, 474.992 483.320 C 474.996 483.770, 476 483.995, 477.222 483.820 C 478.959 483.570, 479.630 482.559, 480.292 479.194 C 481.122 474.978, 481.217 474.894, 484.794 475.194 C 488.223 475.481, 488.499 475.761, 489.283 479.750 C 489.890 482.840, 490.602 484, 491.892 484 C 492.868 484, 493.893 483.774, 494.169 483.498 C 494.445 483.222, 493.447 477.259, 491.950 470.248 C 490.454 463.237, 488.696 454.913, 488.044 451.750 C 487.026 446.813, 486.541 446, 484.617 446 C 482.512 446, 482.151 447.111, 478.680 464.250 M 496.530 448.250 C 496.251 449.488, 496.130 457.925, 496.261 467 C 496.489 482.754, 496.590 483.500, 498.500 483.500 C 500.341 483.500, 500.540 482.667, 501 473 L 501.500 462.500 504.780 473.250 C 507.501 482.169, 508.395 484, 510.030 484 C 511.921 484, 512 483.237, 512 465 C 512 446.667, 511.930 446, 510 446 C 508.129 446, 507.994 446.696, 507.913 456.750 L 507.826 467.500 504.197 456.750 C 501.417 448.515, 500.155 446, 498.803 446 C 497.790 446, 496.822 446.958, 496.530 448.250 M 516 465 L 516 484.139 518.250 483.820 C 520.348 483.522, 520.520 482.942, 520.790 475.250 L 521.081 467 524.540 467 L 528 467 528 475.500 C 528 483.333, 528.157 484, 530 484 C 531.930 484, 532 483.333, 532 465 C 532 446.667, 531.930 446, 530 446 C 528.178 446, 528 446.667, 528 453.500 L 528 461 524.544 461 L 521.088 461 520.794 453.750 C 520.524 447.097, 520.315 446.474, 518.250 446.180 L 516 445.861 516 465 M 543.794 464.100 C 543.632 474.055, 543.792 482.670, 544.149 483.245 C 544.506 483.821, 545.519 484.015, 546.399 483.677 C 547.713 483.173, 548.019 481.222, 548.105 472.781 L 548.210 462.500 551.691 473.250 C 554.512 481.960, 555.536 484, 557.086 484 C 558.904 484, 559 483.048, 559 465 C 559 446.667, 558.930 446, 557 446 C 555.129 446, 554.994 446.696, 554.913 456.750 L 554.826 467.500 551.197 456.750 C 548.443 448.591, 547.149 446, 545.828 446 C 544.249 446, 544.060 447.679, 543.794 464.100 M 563 465 C 563 483.333, 563.070 484, 565 484 C 566.930 484, 567 483.333, 567 465 C 567 446.667, 566.930 446, 565 446 C 563.070 446, 563 446.667, 563 465 M 571 465 L 571 484 578.500 484 L 586 484 586 480.500 L 586 477 580.500 477 L 575 477 575 472 L 575 467 580 467 C 584.889 467, 585 466.933, 585 464 C 585 461.067, 584.889 461, 580 461 L 575 461 575 457.052 L 575 453.105 580.250 452.802 C 585.370 452.508, 585.508 452.419, 585.813 449.250 L 586.127 446 578.563 446 L 571 446 571 465 M 589 464.930 C 589 483.333, 589.070 484, 591 484 C 592.885 484, 593.002 483.322, 593.033 472.250 L 593.066 460.500 596.831 472 C 600 481.679, 600.945 483.551, 602.798 483.820 L 605 484.139 605 465.070 C 605 446.667, 604.930 446, 603 446 C 601.118 446, 600.995 446.695, 600.916 457.750 L 600.832 469.500 597.139 458 C 594.006 448.243, 593.109 446.452, 591.223 446.180 L 589 445.861 589 464.930 M 32 457.500 C 32 461.821, 32.118 462, 34.965 462 C 38.446 462, 40.487 459.075, 39.566 455.407 C 39.073 453.441, 38.324 453, 35.481 453 C 32.022 453, 32 453.029, 32 457.500 M 187 465 C 187 476.969, 187.006 477, 189.378 477 C 193.432 477, 194.500 474.499, 194.500 465 C 194.500 455.501, 193.432 453, 189.378 453 C 187.006 453, 187 453.031, 187 465 M 139.183 461.799 C 137.635 468.735, 137.663 469, 139.941 469 C 142.647 469, 142.814 468.255, 141.511 462 L 140.365 456.500 139.183 461.799 M 397.764 458.500 C 397.424 459.600, 396.849 462.413, 396.485 464.750 C 395.886 468.604, 396.019 469, 397.912 469 C 400.215 469, 400.438 467.447, 399.134 460.500 C 398.557 457.427, 398.240 456.963, 397.764 458.500 M 483.566 461.408 C 483.166 464.074, 482.602 466.873, 482.313 467.628 C 481.949 468.575, 482.596 469, 484.405 469 C 486.923 469, 486.998 468.836, 486.364 464.750 C 485.169 457.042, 484.365 456.082, 483.566 461.408 M 202.667 486.667 C 202.300 487.033, 202 488.833, 202 490.667 C 202 493.333, 202.400 494, 204 494 C 205.667 494, 206 493.333, 206 490 C 206 486.229, 204.552 484.781, 202.667 486.667 M 281.667 486.667 C 281.300 487.033, 281 488.833, 281 490.667 C 281 493.333, 281.400 494, 283 494 C 284.667 494, 285 493.333, 285 490 C 285 486.229, 283.552 484.781, 281.667 486.667 M 334.667 486.667 C 334.300 487.033, 334 488.833, 334 490.667 C 334 493.333, 334.400 494, 336 494 C 337.667 494, 338 493.333, 338 490 C 338 486.229, 336.552 484.781, 334.667 486.667 M 427 500.941 C 427 501.459, 427.520 502.203, 428.155 502.595 C 428.910 503.063, 429.036 502.867, 428.518 502.029 C 427.916 501.056, 428.581 500.849, 431.293 501.166 C 433.255 501.395, 434.640 501.226, 434.371 500.791 C 433.677 499.669, 427 499.805, 427 500.941 M 132.629 501.791 C 132.360 502.226, 133.684 502.402, 135.570 502.182 C 137.457 501.961, 139 501.605, 139 501.391 C 139 500.638, 133.113 501.008, 132.629 501.791 M 135.725 508.308 L 132.950 509.404 133.225 524.452 L 133.500 539.500 136.500 539.593 C 139.330 539.681, 139.345 539.663, 136.750 539.280 L 134 538.873 134 524.437 C 134 512.841, 134.271 510, 135.378 510 C 136.135 510, 137.315 509.325, 138 508.500 C 138.685 507.675, 139.077 507.048, 138.872 507.106 C 138.668 507.165, 137.251 507.706, 135.725 508.308 M 398 509.201 C 398 509.640, 400.363 509.948, 403.250 509.884 C 408.705 509.763, 408.181 509.370, 401.750 508.758 C 399.688 508.562, 398 508.761, 398 509.201 M 104.362 510.500 C 103.259 513.373, 104.794 514.782, 109.428 515.151 C 111.942 515.351, 114 515.174, 114 514.757 C 114 514.341, 111.923 514, 109.383 514 C 104.998 514, 104.791 513.875, 105.245 511.500 C 105.773 508.738, 105.260 508.158, 104.362 510.500 M 112.287 509.740 C 115.469 509.939, 120.419 509.937, 123.287 509.736 C 126.154 509.535, 123.550 509.372, 117.500 509.374 C 111.450 509.376, 109.104 509.541, 112.287 509.740 M 146 509.395 C 146 509.612, 147.762 509.958, 149.916 510.163 C 152.070 510.369, 153.618 510.191, 153.357 509.768 C 152.882 508.999, 146 508.650, 146 509.395 M 180.702 509.720 C 183.831 510.111, 183.912 510.248, 184.263 515.810 L 184.622 521.500 184.811 515.250 L 185 509 181.250 509.160 C 177.627 509.315, 177.608 509.334, 180.702 509.720 M 196.320 515 C 196.320 518.575, 196.502 520.038, 196.723 518.250 C 196.945 516.462, 196.945 513.538, 196.723 511.750 C 196.502 509.962, 196.320 511.425, 196.320 515 M 258.713 509.721 L 261.927 510.121 262.256 519.311 L 262.585 528.500 262.792 518.750 L 263 509 259.250 509.160 C 255.611 509.315, 255.595 509.332, 258.713 509.721 M 274.455 510.257 C 274.162 511.019, 274.071 516.110, 274.252 521.571 L 274.581 531.500 274.791 520.750 L 275 510 277.964 510 L 280.928 510 281.268 519.250 L 281.609 528.500 281.554 519 L 281.500 509.500 278.243 509.186 C 276.156 508.985, 274.795 509.370, 274.455 510.257 M 319.224 524.250 L 319.500 539.500 322.500 539.593 C 325.433 539.684, 325.437 539.677, 322.701 539.276 L 319.901 538.866 320.201 523.931 C 320.365 515.718, 320.151 508.998, 319.724 508.999 C 319.297 508.999, 319.072 515.862, 319.224 524.250 M 338.667 509.667 C 338.300 510.033, 338 513.885, 338 518.226 C 338 523.937, 337.681 525.921, 336.845 525.405 C 336.130 524.962, 335.962 525.130, 336.405 525.845 C 338.169 528.701, 339 526.370, 339 518.563 L 339 510.127 342.250 509.723 L 345.500 509.320 342.417 509.160 C 340.721 509.072, 339.033 509.300, 338.667 509.667 M 410.750 509.706 C 411.988 509.944, 414.012 509.944, 415.250 509.706 C 416.488 509.467, 415.475 509.272, 413 509.272 C 410.525 509.272, 409.512 509.467, 410.750 509.706 M 429 524.500 L 429 540 432.750 539.840 C 436.442 539.682, 436.450 539.674, 433.250 539.277 L 430 538.873 430 524.500 L 430 510.127 433.250 509.723 C 436.450 509.326, 436.442 509.318, 432.750 509.160 L 429 509 429 524.500 M 444.947 509.738 C 446.843 509.968, 449.005 510.908, 449.752 511.828 C 450.942 513.293, 450.975 513.221, 450.020 511.250 C 449.154 509.462, 448.167 509.033, 445.215 509.160 L 441.500 509.320 444.947 509.738 M 473.224 524.250 L 473.500 539.500 476.500 539.593 C 479.330 539.681, 479.345 539.663, 476.750 539.280 L 474 538.873 474 524.500 L 474 510.127 477.250 509.723 C 480.428 509.329, 480.416 509.317, 476.724 509.160 L 472.948 509 473.224 524.250 M 492.116 515.250 C 492.241 522.005, 492.719 521.349, 493.208 513.750 C 493.377 511.137, 493.174 509, 492.757 509 C 492.341 509, 492.052 511.813, 492.116 515.250 M 171.385 524 C 171.385 530.875, 171.545 533.688, 171.740 530.250 C 171.936 526.813, 171.936 521.188, 171.740 517.750 C 171.545 514.313, 171.385 517.125, 171.385 524 M 120.667 514.667 C 120.300 515.033, 120 520.630, 120 527.103 L 120 538.873 116.750 539.277 C 113.550 539.674, 113.558 539.682, 117.250 539.840 L 121 540 121 527.555 L 121 515.110 125.750 514.735 L 130.500 514.360 125.917 514.180 C 123.396 514.081, 121.033 514.300, 120.667 514.667 M 404.390 515.427 C 404.088 516.212, 404.041 517.900, 404.285 519.177 C 404.628 520.978, 404.758 520.782, 404.864 518.307 C 404.992 515.305, 405.252 515.092, 409.250 514.732 L 413.500 514.349 409.219 514.175 C 406.307 514.056, 404.762 514.457, 404.390 515.427 M 220.272 524 C 220.272 526.475, 220.467 527.487, 220.706 526.250 C 220.944 525.013, 220.944 522.987, 220.706 521.750 C 220.467 520.513, 220.272 521.525, 220.272 524 M 227.272 524 C 227.272 526.475, 227.467 527.487, 227.706 526.250 C 227.944 525.013, 227.944 522.987, 227.706 521.750 C 227.467 520.513, 227.272 521.525, 227.272 524 M 184 532.609 L 184 539.219 180.501 538.810 C 178.495 538.576, 177.376 538.776, 177.879 539.279 C 178.362 539.762, 180.049 540.009, 181.628 539.828 C 184.412 539.510, 184.509 539.308, 184.798 533.250 L 185.095 527 190.500 527 L 195.905 527 196.202 533.250 C 196.491 539.308, 196.588 539.510, 199.372 539.828 C 200.951 540.009, 202.638 539.762, 203.121 539.279 C 203.624 538.776, 202.505 538.576, 200.499 538.810 L 197 539.219 197 532.609 L 197 526 190.500 526 L 184 526 184 532.609 M 404.168 530.250 L 404.336 534.500 404.725 530.800 C 405.113 527.115, 405.135 527.099, 410.307 526.735 L 415.500 526.370 409.750 526.185 L 404 526 404.168 530.250 M 485.703 526.712 L 491.907 527.093 492.203 533.297 L 492.500 539.500 496 539.631 C 499.408 539.758, 499.416 539.749, 496.296 539.321 C 493.123 538.884, 493.090 538.822, 492.796 532.690 L 492.500 526.500 486 526.416 L 479.500 526.331 485.703 526.712 M 367.762 528.707 C 369.006 528.946, 370.806 528.937, 371.762 528.687 C 372.718 528.437, 371.700 528.241, 369.500 528.252 C 367.300 528.263, 366.518 528.468, 367.762 528.707 M 296.750 532.723 C 298.538 532.945, 301.462 532.945, 303.250 532.723 C 305.038 532.502, 303.575 532.320, 300 532.320 C 296.425 532.320, 294.962 532.502, 296.750 532.723 M 458.980 537.750 C 459.846 539.538, 460.833 539.967, 463.785 539.840 L 467.500 539.680 464.053 539.262 C 462.157 539.032, 459.995 538.092, 459.248 537.172 C 458.058 535.707, 458.025 535.779, 458.980 537.750 M 168 539 L 164.500 539.737 167.691 539.868 C 169.446 539.941, 171.160 539.550, 171.500 539 C 171.840 538.450, 171.979 538.059, 171.809 538.132 C 171.639 538.204, 169.925 538.595, 168 539 M 337.899 539.299 C 338.365 539.765, 340.265 539.989, 342.123 539.798 C 345.417 539.459, 345.396 539.438, 341.276 538.951 C 338.953 538.677, 337.433 538.833, 337.899 539.299 M 286.762 539.707 C 288.006 539.946, 289.806 539.937, 290.762 539.687 C 291.718 539.437, 290.700 539.241, 288.500 539.252 C 286.300 539.263, 285.518 539.468, 286.762 539.707 M 310.762 539.707 C 312.006 539.946, 313.806 539.937, 314.762 539.687 C 315.718 539.437, 314.700 539.241, 312.500 539.252 C 310.300 539.263, 309.518 539.468, 310.762 539.707 M 402.250 539.735 C 404.863 539.941, 409.137 539.941, 411.750 539.735 C 414.363 539.529, 412.225 539.360, 407 539.360 C 401.775 539.360, 399.637 539.529, 402.250 539.735" stroke="none" fill="#3481c0" fill-rule="evenodd"/><path d="M 220.234 161.750 C 201.325 209.276, 193 248.783, 193 290.987 C 193 324.372, 197.217 348.213, 208.481 378.500 C 212.159 388.391, 224.516 413.457, 227.801 417.690 C 229.482 419.858, 229.918 419.888, 270 420.592 L 310.500 421.304 298.119 408.960 C 291.310 402.170, 282.371 392.547, 278.256 387.575 C 232.797 332.652, 213.541 267.627, 220.488 192.500 C 221.773 178.595, 225.363 155.239, 227.518 146.750 C 229.126 140.419, 226.884 145.037, 220.234 161.750" stroke="none" fill="#00a85a" fill-rule="evenodd"/><path d="M 266.260 231.750 C 268.422 270.183, 277.930 308.504, 293.116 340 C 306.112 366.953, 319.333 385.541, 340.951 407.250 L 355.639 422 438.486 422 C 484.052 422, 521.052 421.719, 520.709 421.376 C 520.365 421.032, 513.878 419.670, 506.292 418.348 C 382.012 396.690, 311.064 346.735, 278.048 257.641 C 273.816 246.221, 267 222.878, 267 219.804 C 267 218.812, 266.659 218, 266.243 218 C 265.827 218, 265.834 224.188, 266.260 231.750" stroke="none" fill="#fff112" fill-rule="evenodd"/><path d="M 263 16.745 C 234.916 40.988, 209.566 66.005, 190.796 88 C 184.930 94.875, 179.088 101.918, 177.815 103.651 C 176.542 105.384, 170.986 112.809, 165.469 120.151 C 154.828 134.312, 144.819 149.419, 135.754 165 C 130.610 173.843, 120.567 192.500, 120.952 192.500 C 121.046 192.500, 118.883 197.225, 116.146 203 C 96.197 245.088, 82.640 295.323, 77.417 346.500 C 75.143 368.787, 74.862 417.666, 77 418.997 C 77.876 419.541, 100.104 419.951, 130.392 419.982 C 158.933 420.010, 183.296 420.287, 184.533 420.598 C 185.770 420.908, 187.073 420.691, 187.429 420.114 C 187.785 419.538, 185.418 412.864, 182.168 405.283 C 178.918 397.702, 174.314 385.875, 171.938 379 C 169.561 372.125, 167.365 366.275, 167.058 366 C 166.751 365.725, 166.430 364.600, 166.345 363.500 C 166.259 362.400, 164.611 355.425, 162.682 348 C 137.862 252.465, 156.974 160.343, 220.065 71.408 C 229.799 57.687, 243.164 40.965, 253.896 29.079 C 268.342 13.081, 270.184 11, 269.843 11.067 C 269.654 11.104, 266.575 13.659, 263 16.745 M 7 521.500 L 7 546 305.500 546 L 604 546 604 521.500 L 604 497 305.500 497 L 7 497 7 521.500 M 427 500.777 C 427 502.238, 433.201 507, 435.103 507 C 437.395 507, 437.421 506.715, 435.474 502.950 C 434.229 500.542, 433.310 500, 430.474 500 C 428.563 500, 427 500.350, 427 500.777 M 132.694 501.639 C 131.576 502.757, 133.035 504, 135.465 504 C 137.609 504, 137.712 504.216, 136.656 506.492 C 136.020 507.863, 134.926 508.988, 134.224 508.992 C 133.233 508.998, 133.010 512.410, 133.224 524.250 L 133.500 539.500 136.750 539.813 L 140 540.127 140 524.647 C 140 513.177, 139.676 509.046, 138.750 508.703 C 138.047 508.442, 138.704 507.759, 140.250 507.144 C 141.762 506.542, 143 505.436, 143 504.685 C 143 502.221, 134.596 499.737, 132.694 501.639 M 296 502.500 C 296 503.433, 296.944 504, 298.500 504 C 299.875 504, 301 504.450, 301 505 C 301 505.550, 300.550 506, 300 506 C 299.450 506, 299 506.675, 299 507.500 C 299 508.325, 298.415 509, 297.701 509 C 296.986 509, 295.803 510.688, 295.071 512.750 C 294.340 514.813, 292.030 520.550, 289.938 525.500 C 287.847 530.450, 285.831 535.737, 285.459 537.250 C 284.818 539.858, 284.965 540, 288.314 540 C 291.463 540, 291.970 539.621, 293 536.500 L 294.155 533 300.500 533 L 306.845 533 308 536.500 C 309.021 539.593, 309.553 540, 312.578 540 C 314.628 540, 316 539.505, 316 538.764 C 316 536.564, 304.739 510.537, 303.264 509.329 C 302.053 508.338, 302.153 507.989, 303.917 507.044 C 306.760 505.523, 306.535 503.154, 303.435 501.975 C 299.575 500.508, 296 500.760, 296 502.500 M 397.998 524.250 L 398 540 406.250 539.994 C 417.262 539.987, 421.581 538.711, 423.562 534.880 C 425.471 531.188, 424.680 526.590, 421.787 524.563 C 419.886 523.232, 419.855 523.002, 421.366 521.491 C 424.274 518.584, 423.059 512.149, 419.278 510.424 C 418.300 509.978, 413.112 509.363, 407.748 509.057 L 397.996 508.500 397.998 524.250 M 104.362 510.500 C 103.261 513.369, 104.811 514.874, 109.196 515.190 L 113.500 515.500 113.781 527.750 L 114.062 540 117.531 540 L 121 540 121 527.500 L 121 515 125.500 515 C 129.833 515, 130 514.889, 130 512 L 130 509 117.469 509 C 107.252 509, 104.831 509.277, 104.362 510.500 M 146 524.500 L 146 540 149 540 L 152 540 152.008 530.250 L 152.017 520.500 158.258 530 C 164.173 539.002, 164.684 539.500, 168 539.500 L 171.500 539.500 171.500 524.500 L 171.500 509.500 168.250 509.187 L 165 508.873 165 518.635 L 165 528.396 158.819 518.698 C 153.036 509.623, 152.425 509, 149.319 509 L 146 509 146 524.500 M 178 523.500 C 178 531.475, 178 538.337, 178 538.750 C 178 539.163, 179.463 539.500, 181.250 539.500 L 184.500 539.500 184.798 533.250 L 185.095 527 190.500 527 L 195.905 527 196.202 533.250 L 196.500 539.500 199.750 539.500 C 201.537 539.500, 203 539.163, 203 538.750 C 203 538.337, 203 531.475, 203 523.500 L 203 509 199.500 509 L 196 509 196 515 L 196 521 190.500 521 L 185 521 185 515 L 185 509 181.500 509 L 178 509 178 523.500 M 226.898 511.270 C 221.890 514.616, 219.770 519.347, 220.374 525.827 C 221.295 535.695, 225.712 539.467, 236.457 539.563 C 240.331 539.598, 244.542 540.192, 245.815 540.883 C 250.134 543.228, 251.484 543.013, 251.706 539.946 C 251.854 537.900, 251.367 536.934, 249.963 536.488 C 248.152 535.914, 248.120 535.668, 249.508 532.985 C 251.454 529.222, 251.422 519.717, 249.451 515.906 C 245.877 508.995, 233.968 506.547, 226.898 511.270 M 256 521.066 C 256 527.702, 256.463 533.997, 257.030 535.055 C 258.613 538.014, 263.382 540, 268.903 540 C 279.485 540, 281.500 536.881, 281.500 520.500 L 281.500 509.500 278 509.500 L 274.500 509.500 274.214 520.441 C 274.057 526.458, 273.439 531.970, 272.842 532.691 C 271.539 534.260, 267.610 534.397, 264.934 532.965 C 263.195 532.034, 263 530.776, 263 520.465 L 263 509 259.500 509 L 256 509 256 521.066 M 319.224 524.250 L 319.500 539.500 322.712 539.810 L 325.923 540.121 326.212 530.842 L 326.500 521.564 332.366 530.782 C 337.872 539.434, 338.440 540, 341.616 540 L 345 540 345 524.437 L 345 508.873 341.750 509.187 L 338.500 509.500 338 518 L 337.500 526.500 331.772 517.750 C 326.353 509.470, 325.854 509, 322.496 509 L 318.948 509 319.224 524.250 M 357 511.183 C 351.915 514.607, 349.767 519.320, 350.366 525.743 C 351.239 535.116, 356.876 540.023, 366.718 539.978 C 369.348 539.966, 373.413 539.088, 375.750 538.027 L 380 536.098 380 529.549 L 380 523 373 523 L 366 523 366 526 C 366 528.762, 366.278 529, 369.500 529 C 371.907 529, 373 529.457, 373 530.465 C 373 534.244, 363.333 535.347, 360.150 531.931 C 356.190 527.680, 356.503 519.027, 360.717 516.266 C 364.182 513.995, 368.593 514.269, 371.426 516.931 C 373.318 518.708, 374.499 519.049, 376.918 518.518 C 378.613 518.146, 380 517.522, 380 517.133 C 380 516.743, 378.715 514.885, 377.144 513.003 C 374.481 509.814, 373.819 509.556, 367.394 509.204 C 361.439 508.878, 360.023 509.148, 357 511.183 M 429 524.500 L 429 540 432.500 540 L 436 540 436 524.500 L 436 509 432.500 509 L 429 509 429 524.500 M 442 524.500 L 442 540 444.964 540 L 447.928 540 448.214 530.457 L 448.500 520.913 454.399 530.457 C 459.954 539.442, 460.495 540, 463.649 540 L 467 540 467 524.500 L 467 509 464.036 509 L 461.072 509 460.786 518.586 L 460.500 528.172 454.575 518.586 C 449.009 509.582, 448.447 509, 445.325 509 L 442 509 442 524.500 M 473.224 524.250 L 473.500 539.500 476.750 539.813 L 480 540.127 480 533.563 L 480 527 485.952 527 L 491.905 527 492.202 533.250 C 492.500 539.500, 492.500 539.500, 495.750 539.813 L 499 540.127 499 524.563 L 499 509 495.500 509 L 492 509 492 515 L 492 521 486 521 L 480 521 480 515 L 480 509 476.474 509 L 472.948 509 473.224 524.250 M 232.400 515.428 C 228.702 517.038, 228 518.578, 228 525.082 C 228 530.631, 230.421 534.055, 234.250 533.921 C 235.488 533.878, 235.985 533.631, 235.356 533.373 C 234.109 532.862, 234.723 529, 236.052 529 C 236.502 529, 238.099 529.467, 239.602 530.039 C 242.952 531.313, 243.963 530.104, 243.985 524.797 C 244.006 519.580, 242.217 516.271, 238.713 515.050 C 237.057 514.472, 235.656 514.018, 235.601 514.039 C 235.545 514.061, 234.105 514.686, 232.400 515.428 M 405 517.948 C 405 520.874, 405.175 520.999, 409.250 520.985 C 414.368 520.966, 416.318 519.899, 415.839 517.380 C 415.552 515.874, 414.439 515.440, 410.241 515.198 L 405 514.895 405 517.948 M 299.162 520.111 C 296.588 526.984, 296.591 527, 300.425 527 L 303.984 527 302.329 522.750 C 300.202 517.285, 300.216 517.296, 299.162 520.111 M 405 530.552 L 405 534.105 410.147 533.802 C 415.579 533.483, 417.860 531.683, 416.691 528.636 C 416.214 527.394, 414.730 527, 410.531 527 L 405 527 405 530.552" stroke="none" fill="#1389a9" fill-rule="evenodd"/><path d="M 0 276.502 L 0 553.003 305.750 552.752 L 611.500 552.500 611.752 276.250 L 612.004 0 306.002 0 L 0 0 0 276.502 M 0.493 277 C 0.493 429.075, 0.609 491.287, 0.750 415.250 C 0.891 339.212, 0.891 214.787, 0.750 138.750 C 0.609 62.712, 0.493 124.925, 0.493 277 M 262 17.140 C 208.569 63.244, 170.336 107.133, 140.175 156.987 C 110.135 206.640, 90.588 259.251, 81.096 316 C 77.008 340.438, 75.823 355.029, 75.284 387.587 L 74.753 419.674 131.508 420.372 C 162.723 420.756, 188.417 420.917, 188.605 420.729 C 188.793 420.541, 186.024 413.514, 182.451 405.114 C 166.956 368.678, 157.657 333.213, 153.900 296.227 C 152.206 279.552, 153.266 239.918, 155.852 223.252 C 158.447 206.525, 163.824 184.636, 169.093 169.346 C 187.029 117.297, 220.928 63.578, 264.705 17.832 C 271.821 10.397, 273.910 7.854, 272.750 8.040 C 272.613 8.062, 267.775 12.157, 262 17.140 M 224.201 151.328 C 188.932 235.349, 183.175 308.564, 206.690 374 C 210.997 385.984, 226.018 416.940, 228.544 419.036 C 229.286 419.652, 245.443 420.285, 270.129 420.664 L 310.500 421.284 295.485 405.892 C 287.227 397.427, 277.504 386.675, 273.877 382 C 248.845 349.731, 232.131 313.932, 224.549 276.349 C 220.578 256.663, 219.598 245.719, 219.593 221 C 219.588 195.850, 221.031 180.356, 225.548 157.063 C 226.874 150.223, 227.810 144.476, 227.627 144.293 C 227.444 144.110, 225.902 147.276, 224.201 151.328 M 266.260 231.750 C 268.422 270.183, 277.930 308.504, 293.116 340 C 306.112 366.953, 319.333 385.541, 340.951 407.250 L 355.639 422 438.486 422 C 484.052 422, 521.052 421.719, 520.709 421.376 C 520.365 421.032, 513.878 419.670, 506.292 418.348 C 382.012 396.690, 311.064 346.735, 278.048 257.641 C 273.816 246.221, 267 222.878, 267 219.804 C 267 218.812, 266.659 218, 266.243 218 C 265.827 218, 265.834 224.188, 266.260 231.750 M 137.449 438.468 C 135.645 442.785, 135.649 443, 137.531 443 C 138.374 443, 139.341 442.276, 139.680 441.391 C 140.248 439.911, 140.371 439.911, 141.199 441.391 C 142.024 442.865, 145 443.709, 145 442.468 C 145 440.315, 141.797 435, 140.500 435 C 139.617 435, 138.247 436.557, 137.449 438.468 M 396 439 C 398.474 443.850, 400.519 444.343, 399.625 439.875 C 399.281 438.156, 399 436.356, 399 435.875 C 399 435.394, 397.866 435, 396.480 435 L 393.959 435 396 439 M 575.449 438.468 C 573.645 442.785, 573.649 443, 575.531 443 C 576.374 443, 577.341 442.276, 577.680 441.391 C 578.248 439.911, 578.371 439.911, 579.199 441.391 C 580.024 442.865, 583 443.709, 583 442.468 C 583 440.315, 579.797 435, 578.500 435 C 577.617 435, 576.247 436.557, 575.449 438.468 M 333.623 440.864 C 332.004 442.653, 332.099 442.727, 336 442.727 C 339.901 442.727, 339.996 442.653, 338.377 440.864 C 337.449 439.839, 336.380 439, 336 439 C 335.620 439, 334.551 439.839, 333.623 440.864 M 92.306 446.498 C 87.572 449.814, 85.058 463.707, 87.290 474.221 C 89.177 483.111, 96.733 486.757, 102.396 481.509 C 104.931 479.160, 105.068 478.573, 104.792 471.259 L 104.500 463.500 100.250 463.193 L 96 462.885 96 466.443 C 96 469.570, 96.302 470, 98.500 470 C 101.639 470, 101.897 473.103, 99 476 C 96.486 478.514, 95.765 478.503, 93.420 475.912 C 91.069 473.314, 90.140 460.489, 91.981 456.046 C 93.979 451.222, 98.460 451.001, 99.632 455.670 C 100.037 457.283, 100.744 457.928, 101.705 457.560 C 102.507 457.252, 103.352 457, 103.582 457 C 103.812 457, 104 455.615, 104 453.923 C 104 451.856, 103.041 449.887, 101.077 447.923 C 97.813 444.659, 95.474 444.279, 92.306 446.498 M 214.657 447.055 C 207.840 452.418, 207.150 474.983, 213.586 482.095 C 215.708 484.440, 220.289 484.568, 222.512 482.345 C 226.058 478.800, 227.176 471.665, 224.357 470.583 C 223.453 470.237, 222.648 470.076, 222.567 470.226 C 222.486 470.377, 221.978 471.846, 221.439 473.490 C 220.286 477.006, 217.190 477.980, 215.316 475.418 C 213.215 472.544, 213.541 456.788, 215.759 454.050 C 217.917 451.384, 220.753 452.167, 221.632 455.670 C 222.037 457.283, 222.744 457.928, 223.705 457.560 C 224.507 457.252, 225.352 457, 225.582 457 C 226.557 457, 225.884 452.677, 224.490 449.980 C 223.062 447.219, 220.260 445, 218.201 445 C 217.689 445, 216.094 445.925, 214.657 447.055 M 350.537 447.372 C 347.388 450.521, 346.011 455.885, 346.011 465 C 346.011 477.513, 349.040 484, 354.884 484 C 358.227 484, 360.313 481.853, 361.964 476.711 C 362.917 473.742, 362.918 472.607, 361.968 471.461 C 360.128 469.244, 359.263 469.672, 358.029 473.412 C 355.477 481.145, 350.986 477.543, 350.244 467.167 C 349.709 459.687, 351.139 453.544, 353.639 452.585 C 355.669 451.806, 356.922 452.664, 358.037 455.597 C 359.024 458.194, 359.724 458.460, 361.919 457.071 C 364.065 455.713, 360.756 447.665, 357.427 446.149 C 353.921 444.551, 353.236 444.673, 350.537 447.372 M 10 449.500 C 10 452.525, 10.325 453, 12.393 453 C 13.709 453, 15.059 453.712, 15.393 454.582 C 15.727 455.452, 16 462.427, 16 470.082 C 16 483.333, 16.096 484, 18 484 C 19.914 484, 20 483.333, 20 468.566 L 20 453.133 22.750 452.816 C 25.041 452.553, 25.552 451.958, 25.813 449.250 L 26.127 446 18.063 446 L 10 446 10 449.500 M 28 465 C 28 483.333, 28.070 484, 30 484 C 31.833 484, 32 483.333, 32 476 C 32 469.829, 32.318 468, 33.393 468 C 34.897 468, 35.148 468.465, 38.523 477.500 C 40.386 482.486, 41.200 483.553, 43.344 483.813 L 45.924 484.125 43.478 476.934 C 42.132 472.979, 40.550 469.162, 39.960 468.452 C 39.180 467.512, 39.272 466.936, 40.299 466.331 C 44.453 463.882, 45.445 453.106, 41.927 448.635 C 40.105 446.318, 39.140 446, 33.927 446 L 28 446 28 465 M 47.661 448.250 C 46.999 450.932, 47.805 475.636, 48.648 478.500 C 50.398 484.447, 57.246 486.045, 60.927 481.365 C 62.832 478.943, 63 477.407, 63 462.365 C 63 446.667, 62.919 446, 61 446 C 59.092 446, 59 446.667, 59 460.429 C 59 472.212, 58.712 475.145, 57.429 476.429 C 56.564 477.293, 55.696 478, 55.500 478 C 55.304 478, 54.436 477.293, 53.571 476.429 C 52.288 475.145, 52 472.212, 52 460.429 C 52 446.942, 51.876 446, 50.108 446 C 48.978 446, 47.993 446.905, 47.661 448.250 M 67 465 C 67 483.333, 67.070 484, 69 484 C 70.881 484, 71.006 483.302, 71.094 472.250 L 71.187 460.500 75.018 472 C 78.127 481.333, 79.240 483.560, 80.924 483.820 C 82.964 484.134, 83 483.807, 83 465.070 C 83 446.667, 82.930 446, 81 446 C 79.125 446, 78.993 446.703, 78.890 457.250 L 78.781 468.500 75.140 457.253 C 71.931 447.337, 71.234 446.005, 69.250 446.003 L 67 446 67 465 M 114.187 449.250 C 114.448 451.958, 114.959 452.553, 117.250 452.816 L 120 453.133 120 468.636 L 120 484.139 122.250 483.820 C 124.457 483.506, 124.505 483.208, 124.776 468.250 L 125.052 453 127.526 453 C 129.687 453, 130 452.557, 130 449.500 L 130 446 121.937 446 L 113.873 446 114.187 449.250 M 138 446.434 C 138 446.672, 136.425 454.514, 134.500 463.861 C 130.414 483.700, 130.390 484, 132.941 484 C 134.427 484, 135.078 483.004, 135.717 479.750 C 136.503 475.752, 136.771 475.482, 140.242 475.192 C 143.574 474.913, 143.993 475.156, 144.559 477.692 C 145.828 483.379, 146.174 484, 148.067 484 C 149.130 484, 150.003 483.438, 150.007 482.750 C 150.010 482.063, 148.356 473.512, 146.331 463.750 C 142.835 446.896, 142.532 446, 140.325 446 C 139.046 446, 138 446.195, 138 446.434 M 152 464.937 C 152 483.333, 152.070 484, 154 484 C 155.884 484, 156.007 483.292, 156.124 471.750 L 156.248 459.500 158.040 471.500 C 159.025 478.100, 159.870 483.613, 159.916 483.750 C 159.962 483.887, 160.848 484, 161.884 484 C 163.519 484, 163.965 482.581, 165.267 473.250 L 166.767 462.500 166.883 473.250 C 166.992 483.294, 167.131 484, 169 484 C 170.930 484, 171 483.333, 171 465 L 171 446 168 446 C 166.350 446, 165 446.251, 165 446.558 C 165 447.515, 162.981 461.319, 162.303 465 C 161.774 467.869, 161.373 466.516, 160.079 457.500 L 158.500 446.500 155.250 446.187 L 152 445.873 152 464.937 M 182.607 447.582 C 181.816 449.643, 181.816 480.357, 182.607 482.418 C 183.029 483.518, 184.512 484, 187.472 484 C 195.679 484, 199.005 478.482, 198.994 464.884 C 198.988 456.257, 197.643 450.643, 194.935 447.935 C 192.419 445.419, 183.535 445.165, 182.607 447.582 M 202 465 C 202 483.333, 202.070 484, 204 484 C 205.930 484, 206 483.333, 206 465 C 206 446.667, 205.930 446, 204 446 C 202.070 446, 202 446.667, 202 465 M 229.895 452.250 C 229.775 459.438, 229.776 463.107, 229.906 475.250 C 229.993 483.302, 230.160 484, 232 484 C 233.843 484, 234 483.333, 234 475.500 L 234 467 237.500 467 L 241 467 241 475.570 C 241 483.885, 241.067 484.130, 243.250 483.820 C 245.491 483.501, 245.500 483.424, 245.500 465 C 245.500 446.576, 245.491 446.499, 243.250 446.180 C 241.087 445.873, 241 446.153, 241 453.430 L 241 461 237.500 461 L 234 461 234 453.500 C 234 446.667, 233.822 446, 232 446 C 230.225 446, 229.988 446.702, 229.895 452.250 M 255 446.681 C 255 447.419, 260.710 478.027, 261.555 481.815 C 261.935 483.521, 262.653 484.047, 264.285 483.815 C 266.323 483.525, 266.756 482.139, 269.692 466.500 C 273.533 446.044, 273.536 446, 271.067 446 C 268.738 446, 268.585 446.483, 266.353 460.814 C 265.328 467.400, 264.319 471.371, 263.940 470.314 C 263.581 469.316, 262.454 463.438, 261.434 457.250 C 259.701 446.731, 259.432 446, 257.290 446 C 256.031 446, 255 446.306, 255 446.681 M 275.164 462.297 C 275.564 481.679, 276.402 484, 283 484 C 289.598 484, 290.436 481.679, 290.836 462.297 C 291.161 446.522, 291.108 446, 289.160 446 C 287.251 446, 287.131 446.745, 286.824 460.467 C 286.569 471.868, 286.172 475.261, 284.955 476.477 C 283.607 477.822, 283.159 477.837, 281.455 476.591 C 279.700 475.310, 279.465 473.670, 279.156 460.582 C 278.831 446.801, 278.703 446, 276.820 446 C 274.898 446, 274.840 446.575, 275.164 462.297 M 303.649 463.750 C 305.486 473.512, 306.992 482.063, 306.995 482.750 C 306.998 483.438, 308.089 484, 309.421 484 C 311.260 484, 311.974 483.340, 312.394 481.250 C 312.698 479.738, 314.115 472.200, 315.543 464.500 C 316.971 456.800, 318.382 449.488, 318.678 448.250 C 319.126 446.378, 318.801 446, 316.743 446 C 314.364 446, 314.203 446.427, 312.497 457.250 C 311.522 463.438, 310.405 469.108, 310.016 469.851 C 309.622 470.602, 308.755 467.712, 308.065 463.351 C 305.582 447.662, 305.056 446, 302.571 446 L 300.308 446 303.649 463.750 M 320.228 464.750 C 320.498 483.339, 320.519 483.503, 322.750 483.820 L 325 484.139 325 465.070 L 325 446 322.478 446 L 319.956 446 320.228 464.750 M 328 465 L 328 484 335.500 484 L 343 484 343 480.500 L 343 477 337.445 477 L 331.890 477 332.195 472.250 L 332.500 467.500 337.250 467.195 C 341.751 466.906, 342 466.739, 342 464 C 342 461.261, 341.751 461.094, 337.250 460.805 C 332.546 460.503, 332.497 460.464, 332.190 456.750 L 331.879 453 337.440 453 L 343 453 343 449.500 L 343 446 335.500 446 L 328 446 328 465 M 374 465 L 374 484 381 484 L 388 484 388 480.500 L 388 477 383 477 L 378 477 378 461.500 C 378 446.667, 377.914 446, 376 446 C 374.070 446, 374 446.667, 374 465 M 395.506 448.250 C 393.905 455.020, 389 480.583, 389 482.156 C 389 483.314, 389.721 484, 390.939 484 C 392.470 484, 393.019 483.054, 393.552 479.500 C 394.217 475.068, 394.285 475, 398.055 475 C 401.760 475, 401.909 475.136, 402.719 479.250 C 403.371 482.561, 404.046 483.571, 405.778 483.820 C 407 483.995, 408.004 483.770, 408.008 483.320 C 408.013 482.869, 406.329 474.288, 404.266 464.250 C 400.748 447.137, 400.375 446, 398.276 446 C 396.780 446, 395.862 446.745, 395.506 448.250 M 410 465 C 410 483.333, 410.070 484, 412 484 C 413.879 484, 414.008 483.290, 414.131 472.250 L 414.263 460.500 415.881 472 C 417.329 482.286, 417.721 483.532, 419.591 483.799 C 421.531 484.076, 421.791 483.288, 423.217 472.799 L 424.754 461.500 424.877 472.750 C 424.992 483.292, 425.126 484, 427 484 C 428.930 484, 429 483.333, 429 465 L 429 446 426.079 446 C 422.770 446, 422.782 445.968, 420.948 459.998 C 420.337 464.672, 419.726 468.607, 419.590 468.743 C 419.455 468.878, 418.790 464.604, 418.113 459.245 C 416.458 446.148, 416.400 446, 412.933 446 L 410 446 410 465 M 439 449.500 C 439 452.722, 439.238 453, 442 453 L 445 453 445 468.500 C 445 483.333, 445.086 484, 447 484 C 448.914 484, 449 483.333, 449 468.500 L 449 453 452 453 C 454.762 453, 455 452.722, 455 449.500 L 455 446 447 446 L 439 446 439 449.500 M 457 465 C 457 483.203, 457.082 484, 458.960 484 C 460.724 484, 460.948 483.178, 461.210 475.750 L 461.500 467.500 465.250 467.190 L 469 466.879 469 475.440 C 469 483.333, 469.156 484, 471 484 C 472.930 484, 473 483.333, 473 465 C 473 446.667, 472.930 446, 471 446 C 469.178 446, 469 446.667, 469 453.500 L 469 461 465 461 L 461 461 461 453.500 C 461 446.667, 460.822 446, 459 446 C 457.070 446, 457 446.667, 457 465 M 478.680 464.250 C 476.647 474.288, 474.987 482.869, 474.992 483.320 C 474.996 483.770, 476 483.995, 477.222 483.820 C 478.959 483.570, 479.630 482.559, 480.292 479.194 C 481.122 474.978, 481.217 474.894, 484.794 475.194 C 488.223 475.481, 488.499 475.761, 489.283 479.750 C 489.890 482.840, 490.602 484, 491.892 484 C 492.868 484, 493.893 483.774, 494.169 483.498 C 494.445 483.222, 493.447 477.259, 491.950 470.248 C 490.454 463.237, 488.696 454.913, 488.044 451.750 C 487.026 446.813, 486.541 446, 484.617 446 C 482.512 446, 482.151 447.111, 478.680 464.250 M 496.530 448.250 C 496.251 449.488, 496.130 457.925, 496.261 467 C 496.489 482.754, 496.590 483.500, 498.500 483.500 C 500.341 483.500, 500.540 482.667, 501 473 L 501.500 462.500 504.780 473.250 C 507.501 482.169, 508.395 484, 510.030 484 C 511.921 484, 512 483.237, 512 465 C 512 446.667, 511.930 446, 510 446 C 508.129 446, 507.994 446.696, 507.913 456.750 L 507.826 467.500 504.197 456.750 C 501.417 448.515, 500.155 446, 498.803 446 C 497.790 446, 496.822 446.958, 496.530 448.250 M 516 465 L 516 484.139 518.250 483.820 C 520.348 483.522, 520.520 482.942, 520.790 475.250 L 521.081 467 524.540 467 L 528 467 528 475.500 C 528 483.333, 528.157 484, 530 484 C 531.930 484, 532 483.333, 532 465 C 532 446.667, 531.930 446, 530 446 C 528.178 446, 528 446.667, 528 453.500 L 528 461 524.544 461 L 521.088 461 520.794 453.750 C 520.524 447.097, 520.315 446.474, 518.250 446.180 L 516 445.861 516 465 M 543.794 464.100 C 543.632 474.055, 543.792 482.670, 544.149 483.245 C 544.506 483.821, 545.519 484.015, 546.399 483.677 C 547.713 483.173, 548.019 481.222, 548.105 472.781 L 548.210 462.500 551.691 473.250 C 554.512 481.960, 555.536 484, 557.086 484 C 558.904 484, 559 483.048, 559 465 C 559 446.667, 558.930 446, 557 446 C 555.129 446, 554.994 446.696, 554.913 456.750 L 554.826 467.500 551.197 456.750 C 548.443 448.591, 547.149 446, 545.828 446 C 544.249 446, 544.060 447.679, 543.794 464.100 M 563 465 C 563 483.333, 563.070 484, 565 484 C 566.930 484, 567 483.333, 567 465 C 567 446.667, 566.930 446, 565 446 C 563.070 446, 563 446.667, 563 465 M 571 465 L 571 484 578.500 484 L 586 484 586 480.500 L 586 477 580.500 477 L 575 477 575 472 L 575 467 580 467 C 584.889 467, 585 466.933, 585 464 C 585 461.067, 584.889 461, 580 461 L 575 461 575 457.052 L 575 453.105 580.250 452.802 C 585.370 452.508, 585.508 452.419, 585.813 449.250 L 586.127 446 578.563 446 L 571 446 571 465 M 589 464.930 C 589 483.333, 589.070 484, 591 484 C 592.885 484, 593.002 483.322, 593.033 472.250 L 593.066 460.500 596.831 472 C 600 481.679, 600.945 483.551, 602.798 483.820 L 605 484.139 605 465.070 C 605 446.667, 604.930 446, 603 446 C 601.118 446, 600.995 446.695, 600.916 457.750 L 600.832 469.500 597.139 458 C 594.006 448.243, 593.109 446.452, 591.223 446.180 L 589 445.861 589 464.930 M 32 457.500 C 32 461.821, 32.118 462, 34.965 462 C 38.446 462, 40.487 459.075, 39.566 455.407 C 39.073 453.441, 38.324 453, 35.481 453 C 32.022 453, 32 453.029, 32 457.500 M 187 465 C 187 476.969, 187.006 477, 189.378 477 C 193.432 477, 194.500 474.499, 194.500 465 C 194.500 455.501, 193.432 453, 189.378 453 C 187.006 453, 187 453.031, 187 465 M 139.183 461.799 C 137.635 468.735, 137.663 469, 139.941 469 C 142.647 469, 142.814 468.255, 141.511 462 L 140.365 456.500 139.183 461.799 M 397.764 458.500 C 397.424 459.600, 396.849 462.413, 396.485 464.750 C 395.886 468.604, 396.019 469, 397.912 469 C 400.215 469, 400.438 467.447, 399.134 460.500 C 398.557 457.427, 398.240 456.963, 397.764 458.500 M 483.566 461.408 C 483.166 464.074, 482.602 466.873, 482.313 467.628 C 481.949 468.575, 482.596 469, 484.405 469 C 486.923 469, 486.998 468.836, 486.364 464.750 C 485.169 457.042, 484.365 456.082, 483.566 461.408 M 202.667 486.667 C 202.300 487.033, 202 488.833, 202 490.667 C 202 493.333, 202.400 494, 204 494 C 205.667 494, 206 493.333, 206 490 C 206 486.229, 204.552 484.781, 202.667 486.667 M 281.667 486.667 C 281.300 487.033, 281 488.833, 281 490.667 C 281 493.333, 281.400 494, 283 494 C 284.667 494, 285 493.333, 285 490 C 285 486.229, 283.552 484.781, 281.667 486.667 M 334.667 486.667 C 334.300 487.033, 334 488.833, 334 490.667 C 334 493.333, 334.400 494, 336 494 C 337.667 494, 338 493.333, 338 490 C 338 486.229, 336.552 484.781, 334.667 486.667 M 7 521.500 L 7 546 305.500 546 L 604 546 604 521.500 L 604 497 305.500 497 L 7 497 7 521.500 M 430.500 504 C 432.081 505.650, 434.202 507, 435.213 507 C 436.934 507, 436.952 506.808, 435.500 504 C 434.273 501.626, 433.288 501, 430.787 501 L 427.626 501 430.500 504 M 133 503 C 133 503.550, 134.125 504, 135.500 504 C 138.101 504, 138.925 505.503, 136.750 506.280 C 136.063 506.525, 135.775 507.025, 136.111 507.391 C 137.104 508.470, 142 506.176, 142 504.632 C 142 503.852, 141.288 502.941, 140.418 502.607 C 137.906 501.643, 133 501.903, 133 503 M 296.462 502.938 C 296.823 503.522, 298.329 504.014, 299.809 504.032 C 302.382 504.062, 302.416 504.127, 300.573 505.521 C 297.977 507.485, 299.357 508.614, 302.567 507.151 C 306.693 505.272, 305.371 502.564, 300.144 502.188 C 297.270 501.981, 296.027 502.234, 296.462 502.938 M 105.416 509.917 C 105.187 510.146, 105 511.158, 105 512.167 C 105 513.673, 105.803 514, 109.500 514 L 114 514 114 526.500 L 114 539 116.969 539 L 119.938 539 120.219 526.750 L 120.500 514.500 125.312 514.193 C 129.494 513.926, 130.083 513.621, 129.812 511.869 C 129.521 509.990, 128.693 509.841, 117.666 509.676 C 111.158 509.579, 105.645 509.688, 105.416 509.917 M 135.750 509.696 C 134.185 510.099, 134 511.672, 134 524.573 L 134 539 137.027 539 L 140.053 539 139.777 524.332 C 139.612 515.587, 139.096 509.579, 138.500 509.454 C 137.950 509.339, 136.713 509.447, 135.750 509.696 M 167.287 509.763 C 165.215 510.106, 165.055 510.716, 164.787 519.315 L 164.500 528.500 158.620 519.250 C 153.106 510.576, 152.530 510, 149.370 510 L 146 510 146 524.500 L 146 539 149 539 L 152 539 152.029 529.250 L 152.057 519.500 158.279 529.238 C 164.049 538.271, 164.736 538.978, 167.750 538.988 L 171 539 171 524.559 C 171 516.616, 170.662 509.956, 170.250 509.758 C 169.838 509.560, 168.504 509.562, 167.287 509.763 M 197 514.893 L 197 521 190.500 521 L 184 521 184 515.500 C 184 510.056, 183.970 510, 181 510 L 178 510 178 524.500 L 178 539 181 539 L 184 539 184 532.500 L 184 526 190.500 526 L 197 526 197 532.500 L 197 539 200 539 L 203 539 203 524.500 C 203 512.649, 202.741 510, 201.582 510 C 200.802 510, 199.452 509.727, 198.582 509.393 C 197.246 508.880, 197 509.735, 197 514.893 M 228.121 510.710 C 222.709 513.376, 220.835 517.321, 221.228 525.216 C 221.517 531.038, 221.951 532.339, 224.483 534.982 C 228.020 538.674, 233.593 540.334, 239.487 539.450 C 242.718 538.965, 244.467 539.213, 246.156 540.396 C 249.112 542.467, 249.706 542.418, 251.002 539.996 C 251.903 538.313, 251.693 537.817, 249.691 536.905 L 247.308 535.819 249.154 532.198 C 253.045 524.565, 250.664 515.204, 243.759 510.995 C 239.743 508.546, 232.772 508.419, 228.121 510.710 M 296.927 510.588 C 296.387 511.239, 293.673 517.335, 290.895 524.135 C 288.117 530.936, 285.606 537.063, 285.315 537.750 C 284.952 538.609, 285.852 539, 288.192 539 C 291.185 539, 291.754 538.570, 292.880 535.454 L 294.162 531.909 300.331 532.204 C 306.221 532.487, 306.565 532.647, 307.930 535.750 C 309.129 538.473, 309.897 539, 312.666 539 L 315.971 539 314.093 534.250 C 313.060 531.638, 310.241 525, 307.828 519.500 C 303.812 510.342, 303.209 509.496, 300.675 509.453 C 299.153 509.427, 297.466 509.938, 296.927 510.588 M 320.524 509.810 C 320.236 510.098, 320 516.783, 320 524.667 L 320 539 322.962 539 L 325.925 539 326.212 529.911 L 326.500 520.823 332.338 529.911 C 337.821 538.446, 338.385 539, 341.588 539 L 345 539 345 524.500 L 345 510 342 510 L 339 510 339 519.742 L 339 529.485 332.572 519.873 C 327.828 512.778, 325.477 510.133, 323.596 509.774 C 322.194 509.506, 320.811 509.522, 320.524 509.810 M 358.164 510.689 C 346.608 516.383, 348.797 535.714, 361.381 539.103 C 366.297 540.426, 372.535 539.569, 376.783 536.986 C 379.832 535.131, 380 534.716, 380 529.015 L 380 523 373 523 C 366.200 523, 366 523.071, 366 525.500 C 366 527.690, 366.433 528, 369.500 528 C 372.537 528, 373 528.321, 373 530.422 C 373 532.291, 372.222 533.102, 369.601 533.967 C 365.249 535.403, 361.493 534.443, 358.984 531.253 C 356.768 528.435, 356.356 522.507, 358.110 518.657 C 360.339 513.767, 367.615 512.524, 371.467 516.376 C 373.151 518.060, 374.595 518.609, 376.422 518.260 C 379.410 517.688, 379.593 516.835, 377.434 513.540 C 374.475 509.024, 364.529 507.553, 358.164 510.689 M 403.250 509.802 L 398 510.105 398 524.552 L 398 539 408.545 539 C 418.409 539, 419.250 538.841, 421.545 536.545 C 424.863 533.227, 424.901 527.854, 421.625 525.277 C 419.283 523.434, 419.276 523.378, 421.125 521.094 C 423.494 518.168, 423.499 515.838, 421.144 512.929 C 419.089 510.392, 412.627 509.262, 403.250 509.802 M 493.524 509.810 C 493.236 510.098, 493 512.733, 493 515.667 L 493 521 486.500 521 L 480 521 480 515.500 C 480 510.056, 479.970 510, 477 510 L 474 510 474 524.500 L 474 539 477 539 L 480 539 480 532.452 L 480 525.905 486.250 526.202 L 492.500 526.500 492.798 532.750 C 493.092 538.938, 493.125 539, 496.048 539 L 499 539 499 524.617 L 499 510.233 496.524 509.760 C 495.161 509.499, 493.811 509.522, 493.524 509.810 M 256.100 520.250 C 256.155 525.888, 256.503 531.584, 256.873 532.910 C 259.110 540.905, 275.669 542.409, 279.517 534.966 C 280.565 532.940, 281 528.858, 281 521.050 L 281 510 278 510 L 275 510 275 520.500 C 275 529.667, 274.746 531.254, 273 533 C 270.495 535.505, 267.890 535.541, 264.890 533.112 C 262.768 531.393, 262.524 530.274, 262.166 520.612 L 261.773 510 258.887 510 L 256 510 256.100 520.250 M 430 524.500 L 430 539 433 539 L 436 539 436 524.500 L 436 510 433 510 L 430 510 430 524.500 M 442 524.500 L 442 539 444.962 539 L 447.925 539 448.212 529.808 L 448.500 520.617 454.500 529.793 C 460.019 538.232, 460.761 538.970, 463.750 538.984 L 467 539 467 524.500 L 467 510 464 510 L 461 510 461 519.748 L 461 529.496 454.750 519.748 C 448.948 510.700, 448.267 510.001, 445.250 510 L 442 510 442 524.500 M 229.800 517.046 C 227.009 519.837, 226.796 520.522, 227.249 525.237 C 227.817 531.149, 231.223 535.022, 235.806 534.968 C 238.348 534.938, 238.395 534.857, 236.625 533.516 C 235.518 532.678, 234.998 531.447, 235.357 530.513 C 235.906 529.082, 236.248 529.077, 238.932 530.465 C 240.565 531.309, 242.131 532, 242.412 532 C 242.693 532, 243.415 530.171, 244.018 527.935 C 246.952 517.039, 237.243 509.603, 229.800 517.046 M 404.667 514.667 C 404.300 515.033, 404 516.608, 404 518.167 C 404 520.927, 404.139 521, 409.378 521 C 415.018 521, 417.510 519.493, 416.448 516.725 C 415.560 514.410, 406.505 512.828, 404.667 514.667 M 299.115 519.250 C 295.689 527.699, 295.667 527.250, 299.500 527.250 C 304.694 527.250, 304.877 526.764, 302.041 520.500 L 300.230 516.500 299.115 519.250 M 404 530 L 404 534 409.800 534 C 417.405 534, 420.173 531.315, 416.429 527.571 C 415.386 526.529, 413.030 526, 409.429 526 L 404 526 404 530" stroke="none" fill="#fafbfb" fill-rule="evenodd"/></svg>