<svg version="1.1" id="Layer_1" xmlns="http://www.w3.org/2000/svg" xmlns:xlink="http://www.w3.org/1999/xlink" x="0px" y="0px"
	 width="100%" viewBox="0 0 287 183" enable-background="new 0 0 287 183" xml:space="preserve">
<path fill="#FFFBF7" opacity="1.000000" stroke="none" 
	d="
M288.000000,63.000000 
	C288.000000,103.666664 288.000000,143.833328 288.000000,184.000000 
	C192.333328,184.000000 96.666664,184.000000 1.000000,184.000000 
	C1.000000,123.000000 1.000000,62.000000 1.000000,1.000000 
	C96.666664,1.000000 192.333328,1.000000 288.000000,1.000000 
	C288.000000,21.500000 288.000000,42.000000 288.000000,63.000000 
M261.528320,6.451752 
	C260.677063,6.421334 259.825775,6.390916 258.057220,6.177647 
	C257.226501,6.145156 256.395782,6.084265 255.565079,6.084213 
	C182.042145,6.079585 108.519218,6.078275 34.996288,6.090203 
	C33.672272,6.090417 32.348278,6.252806 30.334314,6.178492 
	C29.212990,6.425364 28.091663,6.672235 26.199423,6.897269 
	C15.840246,9.430327 8.853816,15.537159 5.584947,26.423100 
	C5.433590,26.952467 5.282234,27.481834 5.002699,28.939888 
	C4.968557,70.698036 4.818244,112.456650 4.982902,154.214020 
	C5.023479,164.504776 13.535820,174.128021 24.402025,177.454681 
	C24.938536,177.591141 25.475048,177.727615 26.938429,178.014206 
	C29.596752,178.117050 32.255058,178.309174 34.913403,178.309769 
	C108.318710,178.326019 181.724030,178.323456 255.129333,178.318909 
	C256.959290,178.318802 258.797058,178.358414 260.617981,178.213654 
	C272.449860,177.273209 282.404510,167.897934 284.571320,155.537796 
	C284.616119,154.684570 284.660950,153.831329 284.859406,152.055649 
	C284.873657,138.275146 284.917114,124.494591 284.895844,110.714134 
	C284.855316,84.485069 284.777832,58.256054 284.855255,31.331078 
	C284.595123,30.212027 284.334991,29.092974 284.086670,27.210835 
	C280.957367,15.720668 272.907196,8.269174 261.528320,6.451752 
z"/>
<path fill="#FF971D" opacity="1.000000" stroke="none" 
	d="
M284.715698,32.027020 
	C284.777832,58.256054 284.855316,84.485069 284.895844,110.714134 
	C284.917114,124.494591 284.873657,138.275146 284.475830,152.592957 
	C284.125885,154.108810 284.159515,155.087357 284.193115,156.065918 
	C282.404510,167.897934 272.449860,177.273209 260.617981,178.213654 
	C258.797058,178.358414 256.959290,178.318802 255.129333,178.318909 
	C181.724030,178.323456 108.318710,178.326019 34.913403,178.309769 
	C32.255058,178.309174 29.596752,178.117050 26.427240,177.658966 
	C25.271307,177.220886 24.626564,177.138031 23.981821,177.055176 
	C13.535820,174.128021 5.023479,164.504776 4.982902,154.214020 
	C4.818244,112.456650 4.968557,70.698036 5.345932,28.428301 
	C5.782382,27.274437 5.875600,26.632160 5.968817,25.989883 
	C8.853816,15.537159 15.840246,9.430327 26.790834,7.171024 
	C28.596254,7.076361 29.810263,6.707942 31.024271,6.339524 
	C32.348278,6.252806 33.672272,6.090417 34.996288,6.090203 
	C108.519218,6.078275 182.042145,6.079585 255.565079,6.084213 
	C256.395782,6.084265 257.226501,6.145156 258.597229,6.569266 
	C260.111633,6.914772 261.085968,6.868659 262.060333,6.822546 
	C272.907196,8.269174 280.957367,15.720668 283.812500,27.780043 
	C282.493958,30.035128 280.878052,31.903971 284.715698,32.027020 
M264.688080,172.977448 
	C274.228760,169.172775 280.181244,162.503555 280.214417,151.915421 
	C280.339172,112.101143 280.263733,72.286247 280.255676,32.471584 
	C280.254303,25.674404 277.227936,20.310293 272.240784,15.936184 
	C266.997437,11.337380 260.672089,10.634485 254.003723,10.640021 
	C181.204483,10.700465 108.405182,10.676444 35.605892,10.686795 
	C33.441990,10.687103 31.267559,10.698346 29.115995,10.898010 
	C18.553989,11.878159 9.216071,21.584692 9.182730,32.130356 
	C9.057380,71.777496 9.086756,111.425179 9.116700,151.072617 
	C9.118517,153.478119 9.346434,155.956787 9.951915,158.275330 
	C12.145680,166.675873 18.239561,171.243515 26.327606,174.467316 
	C26.892498,174.287338 27.457390,174.107346 28.956724,173.899689 
	C55.732643,173.925095 82.508568,173.977814 109.284477,173.970047 
	C160.175217,173.955261 211.065948,173.905869 262.249115,174.340942 
	C262.840057,173.982056 263.431030,173.623184 264.688080,172.977448 
z"/>
<path fill="#FF9F2E" opacity="1.000000" stroke="none" 
	d="
M284.785461,31.679049 
	C280.878052,31.903971 282.493958,30.035128 283.806580,28.161587 
	C284.334991,29.092974 284.595123,30.212027 284.785461,31.679049 
z"/>
<path fill="#FF9F2E" opacity="1.000000" stroke="none" 
	d="
M30.679293,6.259008 
	C29.810263,6.707942 28.596254,7.076361 27.176292,7.181943 
	C28.091663,6.672235 29.212990,6.425364 30.679293,6.259008 
z"/>
<path fill="#FF9F2E" opacity="1.000000" stroke="none" 
	d="
M261.794312,6.637149 
	C261.085968,6.868659 260.111633,6.914772 259.055908,6.660692 
	C259.825775,6.390916 260.677063,6.421334 261.794312,6.637149 
z"/>
<path fill="#FF9F2E" opacity="1.000000" stroke="none" 
	d="
M284.382202,155.801849 
	C284.159515,155.087357 284.125885,154.108810 284.399048,153.054169 
	C284.660950,153.831329 284.616119,154.684570 284.382202,155.801849 
z"/>
<path fill="#FF9F2E" opacity="1.000000" stroke="none" 
	d="
M5.776882,26.206491 
	C5.875600,26.632160 5.782382,27.274437 5.410022,27.963959 
	C5.282234,27.481834 5.433590,26.952467 5.776882,26.206491 
z"/>
<path fill="#FF9F2E" opacity="1.000000" stroke="none" 
	d="
M24.191923,177.254929 
	C24.626564,177.138031 25.271307,177.220886 25.963806,177.583908 
	C25.475048,177.727615 24.938536,177.591141 24.191923,177.254929 
z"/>
<path fill="#FFF9F2" opacity="1.000000" stroke="none" 
	d="
M261.956696,173.870850 
	C211.065948,173.905869 160.175217,173.955261 109.284477,173.970047 
	C82.508568,173.977814 55.732643,173.925095 28.313816,173.760162 
	C27.117596,173.759033 26.564285,173.897430 26.010975,174.035812 
	C18.239561,171.243515 12.145680,166.675873 9.951915,158.275330 
	C9.346434,155.956787 9.118517,153.478119 9.116700,151.072617 
	C9.086756,111.425179 9.057380,71.777496 9.182730,32.130356 
	C9.216071,21.584692 18.553989,11.878159 29.115995,10.898010 
	C31.267559,10.698346 33.441990,10.687103 35.605892,10.686795 
	C108.405182,10.676444 181.204483,10.700465 254.003723,10.640021 
	C260.672089,10.634485 266.997437,11.337380 272.240784,15.936184 
	C277.227936,20.310293 280.254303,25.674404 280.255676,32.471584 
	C280.263733,72.286247 280.339172,112.101143 280.214417,151.915421 
	C280.181244,162.503555 274.228760,169.172775 264.074646,173.091583 
	C262.959717,173.427429 262.458191,173.649139 261.956696,173.870850 
M79.499947,169.294083 
	C137.987808,169.294067 196.475662,169.295761 254.963531,169.292831 
	C268.942780,169.292130 275.880280,162.408096 275.883118,148.514847 
	C275.890656,111.522522 275.886292,74.530190 275.885406,37.537865 
	C275.885040,21.816156 269.155670,15.098285 253.350616,15.094362 
	C214.025436,15.084604 174.700272,15.091022 135.375092,15.091315 
	C101.715408,15.091566 68.055656,15.053850 34.396072,15.112416 
	C21.512856,15.134832 13.851607,22.211973 13.818520,34.400322 
	C13.713573,73.058640 13.713221,111.717621 13.822103,150.375931 
	C13.855348,162.179474 21.218760,169.248642 33.009407,169.283020 
	C48.172802,169.327225 63.336418,169.294113 79.499947,169.294083 
z"/>
<path fill="#FF9F2E" opacity="1.000000" stroke="none" 
	d="
M26.169291,174.251556 
	C26.564285,173.897430 27.117596,173.759033 27.846592,173.773987 
	C27.457390,174.107346 26.892498,174.287338 26.169291,174.251556 
z"/>
<path fill="#FF9F2E" opacity="1.000000" stroke="none" 
	d="
M262.102905,174.105896 
	C262.458191,173.649139 262.959717,173.427429 263.741577,173.235016 
	C263.431030,173.623184 262.840057,173.982056 262.102905,174.105896 
z"/>
<path fill="#FF9921" opacity="1.000000" stroke="none" 
	d="
M78.999939,169.294205 
	C63.336418,169.294113 48.172802,169.327225 33.009407,169.283020 
	C21.218760,169.248642 13.855348,162.179474 13.822103,150.375931 
	C13.713221,111.717621 13.713573,73.058640 13.818520,34.400322 
	C13.851607,22.211973 21.512856,15.134832 34.396072,15.112416 
	C68.055656,15.053850 101.715408,15.091566 135.375092,15.091315 
	C174.700272,15.091022 214.025436,15.084604 253.350616,15.094362 
	C269.155670,15.098285 275.885040,21.816156 275.885406,37.537865 
	C275.886292,74.530190 275.890656,111.522522 275.883118,148.514847 
	C275.880280,162.408096 268.942780,169.292130 254.963531,169.292831 
	C196.475662,169.295761 137.987808,169.294067 78.999939,169.294205 
M143.686096,102.484932 
	C144.838745,105.440933 145.991379,108.396935 147.360107,112.225166 
	C147.360107,128.160721 147.360107,144.096268 147.360107,160.043503 
	C149.065063,160.240311 149.882187,160.416519 150.699402,160.417038 
	C173.189743,160.431046 195.684052,160.660019 218.167938,160.278488 
	C224.565277,160.169937 231.132935,158.937576 237.273895,157.072662 
	C252.777313,152.364563 260.158447,141.162262 260.187317,123.658600 
	C260.215027,106.861900 252.825775,96.171234 237.573273,91.024475 
	C235.036163,90.168350 232.438065,89.492943 229.691788,88.681938 
	C233.748642,87.052269 237.565247,85.817268 241.104828,84.032814 
	C247.702744,80.706535 251.916290,75.259880 253.754333,68.106407 
	C258.546631,49.455441 249.484543,33.496292 230.999191,28.142439 
	C227.499908,27.128946 223.850922,26.105389 220.253983,26.041294 
	C196.451035,25.617155 172.643478,25.451845 148.837173,25.227203 
	C148.564560,25.224632 148.288818,25.553213 147.153946,26.273148 
	C147.153946,37.024464 147.153946,48.322697 147.050354,60.338448 
	C145.768570,61.890949 144.486771,63.443451 143.058395,64.069618 
	C143.058395,51.161667 143.058395,38.253719 143.058395,25.293280 
	C120.250427,25.293280 98.275887,25.058779 76.310509,25.405256 
	C67.141922,25.549879 58.075119,27.263012 49.915962,32.001110 
	C38.265999,38.766365 34.624660,49.531071 35.371231,62.157227 
	C36.114021,74.719429 43.045662,82.702171 54.841850,86.642700 
	C56.638870,87.242989 58.450989,87.798065 61.051735,88.627914 
	C58.449913,89.304230 56.670834,89.704521 54.929394,90.229645 
	C45.151638,93.178078 36.926929,98.135674 32.636280,107.953339 
	C22.776205,130.514664 34.081272,153.183258 57.924595,158.617249 
	C60.997349,159.317551 64.162552,159.984329 67.290543,160.011093 
	C91.938499,160.222046 116.587814,160.275864 141.236786,160.356537 
	C141.707031,160.358078 142.178116,160.096863 143.200134,159.795868 
	C143.200134,140.608307 143.200134,121.313309 143.686096,102.484932 
z"/>
<path fill="#FFFEFC" opacity="1.000000" stroke="none" 
	d="
M147.153946,59.620934 
	C147.153946,48.322697 147.153946,37.024464 147.153946,26.273148 
	C148.288818,25.553213 148.564560,25.224632 148.837173,25.227203 
	C172.643478,25.451845 196.451035,25.617155 220.253983,26.041294 
	C223.850922,26.105389 227.499908,27.128946 230.999191,28.142439 
	C249.484543,33.496292 258.546631,49.455441 253.754333,68.106407 
	C251.916290,75.259880 247.702744,80.706535 241.104828,84.032814 
	C237.565247,85.817268 233.748642,87.052269 229.691788,88.681938 
	C232.438065,89.492943 235.036163,90.168350 237.573273,91.024475 
	C252.825775,96.171234 260.215027,106.861900 260.187317,123.658600 
	C260.158447,141.162262 252.777313,152.364563 237.273895,157.072662 
	C231.132935,158.937576 224.565277,160.169937 218.167938,160.278488 
	C195.684052,160.660019 173.189743,160.431046 150.699402,160.417038 
	C149.882187,160.416519 149.065063,160.240311 147.360107,160.043503 
	C147.360107,144.096268 147.360107,128.160721 147.587448,111.735130 
	C148.309357,111.840530 149.073914,112.362946 149.257675,113.042435 
	C151.678741,121.993919 157.628387,124.419876 166.364807,123.306366 
	C172.116135,122.573326 178.036652,123.167755 184.769302,123.167755 
	C176.029678,108.864754 167.927475,95.604942 159.747360,82.217606 
	C168.086426,73.553963 176.177658,65.147797 184.268890,56.741631 
	C184.062454,56.290401 183.856003,55.839176 183.649551,55.387947 
	C171.593582,57.983257 158.707581,51.579067 147.153946,59.620934 
M197.341721,97.110344 
	C194.884598,97.110344 192.427475,97.110344 189.678665,97.110344 
	C189.678665,113.416618 189.678665,129.270630 189.678665,145.396439 
	C193.933319,145.396439 197.914490,145.788437 201.790207,145.315796 
	C210.163895,144.294632 215.555542,139.800568 216.644241,131.561661 
	C217.496964,125.108414 217.442612,118.244774 216.202789,111.872536 
	C214.264893,101.912437 208.555161,97.862831 197.341721,97.110344 
M212.454895,51.331512 
	C209.057343,41.178696 201.938904,37.852413 189.750793,40.756428 
	C189.750793,54.460442 189.750793,68.171982 189.750793,82.234955 
	C192.625046,82.234955 195.107925,82.259872 197.590179,82.230453 
	C206.304169,82.127159 210.797409,79.056602 212.258942,70.440285 
	C213.269913,64.480141 212.609100,58.236420 212.454895,51.331512 
z"/>
<path fill="#FFFEFD" opacity="1.000000" stroke="none" 
	d="
M143.200134,102.018318 
	C143.200134,121.313309 143.200134,140.608307 143.200134,159.795868 
	C142.178116,160.096863 141.707031,160.358078 141.236786,160.356537 
	C116.587814,160.275864 91.938499,160.222046 67.290543,160.011093 
	C64.162552,159.984329 60.997349,159.317551 57.924595,158.617249 
	C34.081272,153.183258 22.776205,130.514664 32.636280,107.953339 
	C36.926929,98.135674 45.151638,93.178078 54.929394,90.229645 
	C56.670834,89.704521 58.449913,89.304230 61.051735,88.627914 
	C58.450989,87.798065 56.638870,87.242989 54.841850,86.642700 
	C43.045662,82.702171 36.114021,74.719429 35.371231,62.157227 
	C34.624660,49.531071 38.265999,38.766365 49.915962,32.001110 
	C58.075119,27.263012 67.141922,25.549879 76.310509,25.405256 
	C98.275887,25.058779 120.250427,25.293280 143.058395,25.293280 
	C143.058395,38.253719 143.058395,51.161667 143.027969,64.866844 
	C140.928665,68.265495 138.859787,70.866920 136.790909,73.468346 
	C136.450577,73.280472 136.110229,73.092598 135.769897,72.904724 
	C135.769897,67.310059 135.769897,61.715385 135.769897,56.048889 
	C127.494431,56.048889 119.593872,56.048889 111.533783,56.048889 
	C111.533783,78.502266 111.533783,100.670700 111.533783,122.856796 
	C119.790527,122.856796 127.688782,122.856796 135.983200,122.856796 
	C135.983200,118.095947 135.180527,113.434853 136.240616,109.245064 
	C137.068390,105.973473 140.209457,103.287193 142.322586,100.340820 
	C142.615097,100.899986 142.907608,101.459152 143.200134,102.018318 
M100.876778,117.500214 
	C100.876778,110.768280 100.876778,104.036339 100.876778,97.112816 
	C97.851372,97.112816 95.695717,97.084793 93.540985,97.117455 
	C81.500031,97.299965 74.964561,102.827087 73.190620,114.680656 
	C72.653824,118.267532 72.485809,121.986649 72.745224,125.602409 
	C73.913803,141.890305 84.718918,149.301971 100.876709,144.838547 
	C100.876709,136.110168 100.876709,127.305161 100.876778,117.500214 
M97.306190,40.026237 
	C95.974190,40.027187 94.641960,40.012352 93.310226,40.031612 
	C83.389839,40.175072 78.272705,44.700397 77.144249,54.615372 
	C76.788429,57.741734 76.804352,60.937141 76.941284,64.088303 
	C77.600563,79.258972 85.353539,84.978615 100.871109,81.438042 
	C100.871109,68.586044 100.923264,55.631660 100.757515,42.680061 
	C100.746078,41.786308 99.109711,40.913353 97.306190,40.026237 
z"/>
<path fill="#FFAD0D" opacity="1.000000" stroke="none" 
	d="
M143.443115,102.251625 
	C142.907608,101.459152 142.615097,100.899986 142.322586,100.340820 
	C140.209457,103.287193 137.068390,105.973473 136.240616,109.245064 
	C135.180527,113.434853 135.983200,118.095947 135.983200,122.856796 
	C127.688782,122.856796 119.790527,122.856796 111.533783,122.856796 
	C111.533783,100.670700 111.533783,78.502266 111.533783,56.048889 
	C119.593872,56.048889 127.494431,56.048889 135.769897,56.048889 
	C135.769897,61.715385 135.769897,67.310059 135.769897,72.904724 
	C136.110229,73.092598 136.450577,73.280472 136.790909,73.468346 
	C138.859787,70.866920 140.928665,68.265495 143.101257,65.330017 
	C144.486771,63.443451 145.768570,61.890949 147.102142,59.979691 
	C158.707581,51.579067 171.593582,57.983257 183.649551,55.387947 
	C183.856003,55.839176 184.062454,56.290401 184.268890,56.741631 
	C176.177658,65.147797 168.086426,73.553963 159.747360,82.217606 
	C167.927475,95.604942 176.029678,108.864754 184.769302,123.167755 
	C178.036652,123.167755 172.116135,122.573326 166.364807,123.306366 
	C157.628387,124.419876 151.678741,121.993919 149.257675,113.042435 
	C149.073914,112.362946 148.309357,111.840530 147.479401,111.299011 
	C145.991379,108.396935 144.838745,105.440933 143.443115,102.251625 
M133.436325,101.071739 
	C136.912857,97.776222 140.389374,94.480705 144.182297,90.885262 
	C148.111893,98.550262 152.043030,106.392075 156.176971,114.125488 
	C156.942154,115.556900 158.444138,117.465996 159.746338,117.582191 
	C164.436981,118.000694 169.187637,117.746620 174.921646,117.746620 
	C167.168259,105.047562 160.012161,93.326782 152.718445,81.380600 
	C159.091965,74.801338 165.348541,68.342796 172.327209,61.138832 
	C168.260437,61.138832 165.558945,61.442902 162.951187,61.077717 
	C156.875824,60.226944 152.767242,62.502869 149.066086,67.411064 
	C143.603897,74.654648 137.343002,81.295944 131.422256,88.193733 
	C131.029495,88.086609 130.636749,87.979485 130.243988,87.872360 
	C130.243988,79.056282 130.243988,70.240204 130.243988,61.473953 
	C125.378845,61.473953 121.304985,61.473953 117.268738,61.473953 
	C117.268738,80.348145 117.268738,98.884575 117.268738,117.445015 
	C121.742844,117.445015 125.824417,117.445015 130.341675,117.445015 
	C130.341675,114.654121 130.008133,112.122543 130.429260,109.723434 
	C130.914612,106.958557 132.066360,104.310654 133.436325,101.071739 
z"/>
<path fill="#FF9A24" opacity="1.000000" stroke="none" 
	d="
M197.796448,97.124680 
	C208.555161,97.862831 214.264893,101.912437 216.202789,111.872536 
	C217.442612,118.244774 217.496964,125.108414 216.644241,131.561661 
	C215.555542,139.800568 210.163895,144.294632 201.790207,145.315796 
	C197.914490,145.788437 193.933319,145.396439 189.678665,145.396439 
	C189.678665,129.270630 189.678665,113.416618 189.678665,97.110344 
	C192.427475,97.110344 194.884598,97.110344 197.796448,97.124680 
z"/>
<path fill="#FF9A23" opacity="1.000000" stroke="none" 
	d="
M212.575104,51.725464 
	C212.609100,58.236420 213.269913,64.480141 212.258942,70.440285 
	C210.797409,79.056602 206.304169,82.127159 197.590179,82.230453 
	C195.107925,82.259872 192.625046,82.234955 189.750793,82.234955 
	C189.750793,68.171982 189.750793,54.460442 189.750793,40.756428 
	C201.938904,37.852413 209.057343,41.178696 212.575104,51.725464 
z"/>
<path fill="#FF9921" opacity="1.000000" stroke="none" 
	d="
M100.876740,118.000183 
	C100.876709,127.305161 100.876709,136.110168 100.876709,144.838547 
	C84.718918,149.301971 73.913803,141.890305 72.745224,125.602409 
	C72.485809,121.986649 72.653824,118.267532 73.190620,114.680656 
	C74.964561,102.827087 81.500031,97.299965 93.540985,97.117455 
	C95.695717,97.084793 97.851372,97.112816 100.876778,97.112816 
	C100.876778,104.036339 100.876778,110.768280 100.876740,118.000183 
z"/>
<path fill="#FF9921" opacity="1.000000" stroke="none" 
	d="
M97.767593,40.028481 
	C99.109711,40.913353 100.746078,41.786308 100.757515,42.680061 
	C100.923264,55.631660 100.871109,68.586044 100.871109,81.438042 
	C85.353539,84.978615 77.600563,79.258972 76.941284,64.088303 
	C76.804352,60.937141 76.788429,57.741734 77.144249,54.615372 
	C78.272705,44.700397 83.389839,40.175072 93.310226,40.031612 
	C94.641960,40.012352 95.974190,40.027187 97.767593,40.028481 
z"/>
<path fill="#FFFDFA" opacity="1.000000" stroke="none" 
	d="
M133.182526,101.341843 
	C132.066360,104.310654 130.914612,106.958557 130.429260,109.723434 
	C130.008133,112.122543 130.341675,114.654121 130.341675,117.445015 
	C125.824417,117.445015 121.742844,117.445015 117.268738,117.445015 
	C117.268738,98.884575 117.268738,80.348145 117.268738,61.473953 
	C121.304985,61.473953 125.378845,61.473953 130.243988,61.473953 
	C130.243988,70.240204 130.243988,79.056282 130.243988,87.872360 
	C130.636749,87.979485 131.029495,88.086609 131.422256,88.193733 
	C137.343002,81.295944 143.603897,74.654648 149.066086,67.411064 
	C152.767242,62.502869 156.875824,60.226944 162.951187,61.077717 
	C165.558945,61.442902 168.260437,61.138832 172.327209,61.138832 
	C165.348541,68.342796 159.091965,74.801338 152.718445,81.380600 
	C160.012161,93.326782 167.168259,105.047562 174.921646,117.746620 
	C169.187637,117.746620 164.436981,118.000694 159.746338,117.582191 
	C158.444138,117.465996 156.942154,115.556900 156.176971,114.125488 
	C152.043030,106.392075 148.111893,98.550262 144.182297,90.885262 
	C140.389374,94.480705 136.912857,97.776222 133.182526,101.341843 
z"/>
</svg>